<?xml version="1.0" encoding="UTF-8"?><svg xmlns="http://www.w3.org/2000/svg" viewBox="0 0 4788.21 1968.4"><defs><style>.cls-1,.cls-2{fill:none;stroke:#069;}.cls-1,.cls-3,.cls-4{stroke-linecap:round;stroke-width:44px;}.cls-2{stroke-miterlimit:10;stroke-width:12px;}.cls-5{fill:#069;}.cls-6{fill:#303030;}.cls-7{fill:#396;}.cls-8{fill:#900;}.cls-3{stroke:#396;}.cls-4{stroke:#900;}</style></defs><g id="Text"><path class="cls-5" d="M994.35,1927c1.96,4.39,2.04,8.67.23,12.83-1.82,4.16-4.69,7.98-8.63,11.46-3.94,3.48-8.44,6.51-13.51,9.08-5.07,2.57-9.87,4.39-14.41,5.45-4.99,1.06-10.25,1.55-15.78,1.48-5.53-.08-11.05-.76-16.57-2.04-5.53-1.28-10.9-3.18-16.12-5.67s-10.03-5.56-14.41-9.19c-5.3-4.39-9.42-9.65-12.37-15.78-2.95-6.13-5.11-12.67-6.47-19.64-1.36-6.96-2.08-13.96-2.16-21-.08-7.04.11-13.66.57-19.86.45-5.6,1.59-11.42,3.41-17.48,1.82-6.05,4.35-11.99,7.6-17.82,3.25-5.82,7.19-11.24,11.8-16.23,4.61-4.99,10.02-9.23,16.23-12.71,4.69-2.72,9.95-4.58,15.78-5.56,5.82-.98,11.73-1.21,17.71-.68,5.98.53,11.65,1.82,17.02,3.86,5.37,2.04,9.95,4.81,13.73,8.29,2.42,2.12,4.96,5.07,7.6,8.85,2.65,3.78,4.58,7.64,5.79,11.58,1.21,3.94,1.25,7.6.11,11.01-1.13,3.41-4.2,5.71-9.19,6.92-2.12.61-4.01.72-5.67.34-1.67-.38-3.18-1.06-4.54-2.04-1.36-.98-2.65-2.16-3.86-3.52-1.21-1.36-2.35-2.72-3.41-4.09-3.63-4.39-7.87-7.38-12.71-8.97-4.85-1.59-9.65-1.96-14.41-1.13-4.77.83-9.23,2.8-13.39,5.9-4.16,3.1-7.38,7.08-9.65,11.92-2.42,5.15-4.35,10.78-5.79,16.91-1.44,6.13-2.23,12.34-2.38,18.61-.15,6.28.42,12.37,1.7,18.27,1.28,5.9,3.52,11.12,6.7,15.66,2.42,3.63,5.41,6.58,8.97,8.85,3.55,2.27,7.38,3.86,11.46,4.77s8.21,1.06,12.37.45c4.16-.6,8.21-1.96,12.14-4.09,1.21-.6,2.53-1.48,3.97-2.61,1.44-1.13,2.91-2.3,4.43-3.52,1.51-1.21,3.06-2.34,4.65-3.4,1.59-1.06,3.29-1.82,5.11-2.27,2.72-.91,5.71-.83,8.97.23,3.25,1.06,5.71,3.26,7.38,6.58Z"/><path class="cls-5" d="M1131.23,1955.15c.15,1.51,0,2.95-.45,4.31-.3.91-.72,1.67-1.25,2.27-.53.61-1.17,1.21-1.93,1.82-1.36.91-3.03,1.74-4.99,2.5-1.21.3-2.38.57-3.52.79-1.13.23-2.31.19-3.52-.11-2.42-.15-4.54-1.06-6.36-2.72-2.57-2.12-4.69-4.46-6.36-7.04-.76-1.21-1.59-2.57-2.5-4.09-.91-1.51-1.74-3.1-2.5-4.77l-25.2-47.9c-1.21,0-2.42.04-3.63.11-1.21.08-2.42.19-3.63.34-3.18.3-6.17.38-8.97.23-2.8-.15-5.71-.15-8.74,0h-4.31v41.09c0,1.21-.04,2.35-.11,3.41-.08,1.06-.11,2.2-.11,3.41,0,.76-.04,1.74-.11,2.95-.08,1.21-.19,2.35-.34,3.4-.31,1.67-.99,3.37-2.04,5.11-1.06,1.74-2.5,3.22-4.31,4.43-3.18,1.96-7.04,2.5-11.58,1.59-1.97-.45-3.86-1.21-5.67-2.27-.61-.45-1.14-1.02-1.59-1.7-.45-.68-.83-1.4-1.13-2.16-.31-.75-.57-1.55-.79-2.38-.23-.83-.49-1.62-.79-2.38-.45-1.51-.68-2.95-.68-4.31v-128.94c0-.91.04-1.85.11-2.84.07-.98.19-1.85.34-2.61.15-1.66.68-3.33,1.59-4.99.45-1.82,1.21-3.1,2.27-3.86.91-.91,2.31-1.7,4.2-2.38,1.89-.68,4.65-.94,8.29-.79,6.81.15,13.54.23,20.2.23s13.31.15,19.98.45c4.39.3,9.04.79,13.96,1.48,4.92.68,9.5,1.85,13.73,3.52,2.72,1.06,5.22,2.12,7.49,3.18,2.87,1.67,5.14,3.26,6.81,4.77,5.3,4.84,9.31,10.67,12.03,17.48,2.72,6.81,4.09,13.7,4.09,20.66,0,8.17-1.93,15.66-5.79,22.47-3.86,6.81-10.03,11.88-18.5,15.21-.3.3-.72.49-1.25.57-.53.08-.95.19-1.25.34l20.88,41.99,2.04,3.63c.3.61.68,1.29,1.13,2.04.45.76.83,1.51,1.14,2.27.45.76.87,1.59,1.25,2.5.38.91.79,1.74,1.25,2.5.45,2.12.83,3.86,1.13,5.22ZM1074.48,1874.34c2.72,0,5.33-.49,7.83-1.48,2.5-.98,4.77-2.31,6.81-3.97,2.04-1.66,3.75-3.59,5.11-5.79,1.36-2.19,2.12-4.58,2.27-7.15.6-7.57-1.36-13.2-5.9-16.91-4.54-3.71-10.52-5.71-17.93-6.02-4.39-.3-9.19-.45-14.41-.45h-14.87c.15,6.21.19,12.52.11,18.96-.08,6.43-.11,14.04-.11,22.81h31.1Z"/><path class="cls-5" d="M1189.79,1809.87c10.14-3.78,19.33-5.45,27.58-4.99,8.25.45,15.62,2.54,22.13,6.24,6.5,3.71,12.07,8.67,16.68,14.87,4.61,6.21,8.36,13.17,11.24,20.88,2.27,5.75,4.01,11.8,5.22,18.16,1.21,6.36,1.93,12.68,2.16,18.96.23,6.28,0,12.45-.68,18.5-.68,6.05-1.78,11.66-3.29,16.8-.91,3.48-1.97,6.66-3.18,9.53-1.21,2.88-2.65,5.75-4.31,8.63-3.78,6.51-8.67,11.8-14.64,15.89-5.98,4.09-12.52,6.96-19.64,8.63-4.84,1.21-9.84,1.78-14.98,1.7-5.15-.07-10.21-.76-15.21-2.04-4.99-1.28-9.8-3.18-14.41-5.67-4.62-2.5-8.82-5.64-12.6-9.42-4.69-4.54-8.55-9.8-11.58-15.78-3.03-5.98-5.37-12.26-7.04-18.84-1.67-6.58-2.72-13.2-3.18-19.86-.45-6.66-.45-13.01,0-19.07.45-5.6,1.55-11.58,3.29-17.93,1.74-6.36,4.27-12.49,7.6-18.39,3.33-5.9,7.38-11.24,12.14-16,4.77-4.77,10.33-8.36,16.68-10.78ZM1242.91,1907.02c1.82-7.11,2.57-15.13,2.27-24.06-.31-8.93-1.74-17.33-4.31-25.2-1.67-4.84-3.75-9.12-6.24-12.83-2.5-3.71-5.45-6.54-8.85-8.51-3.4-1.96-7.38-2.95-11.92-2.95s-9.61,1.36-15.21,4.09c-3.33,1.67-6.17,3.94-8.51,6.81-2.35,2.88-4.24,6.13-5.68,9.76-1.44,3.63-2.57,7.42-3.4,11.35-.83,3.94-1.33,7.72-1.48,11.35-.31,3.94-.38,8.06-.23,12.37.15,4.31.64,8.63,1.48,12.94.83,4.31,2,8.4,3.52,12.26,1.51,3.86,3.55,7.3,6.13,10.33,3.93,4.54,8.51,7.68,13.73,9.42,5.22,1.74,10.4,2.01,15.55.79,8.32-1.82,14.68-7.34,19.07-16.57,1.82-3.33,3.18-7.11,4.09-11.35Z"/><path class="cls-5" d="M1410.89,1899.08c.76,2.12,1.32,4.5,1.7,7.15.38,2.65.57,5.33.57,8.06s-.19,5.41-.57,8.06c-.38,2.65-.87,4.96-1.48,6.92-2.42,8.48-7.26,15.55-14.53,21.22-7.26,5.67-15.55,9.8-24.86,12.37-9.31,2.57-18.92,3.48-28.83,2.72-9.91-.76-18.73-3.25-26.45-7.49-4.84-2.72-9.01-6.05-12.48-9.99-3.48-3.93-6.43-8.32-8.85-13.17-.91-1.66-1.48-3.59-1.7-5.79-.23-2.19-.04-4.31.57-6.36.6-2.04,1.59-3.86,2.95-5.45,1.36-1.59,3.25-2.69,5.68-3.29,1.51-.3,3.21-.45,5.11-.45s3.75.27,5.56.79c1.82.53,3.48,1.36,4.99,2.5,1.51,1.13,2.72,2.69,3.63,4.65,1.66,3.18,4.05,6.09,7.15,8.74,3.1,2.65,6.39,4.81,9.87,6.47,4.99,1.67,10.02,2.35,15.1,2.04,5.07-.3,9.68-1.44,13.85-3.41,4.16-1.96,7.53-4.65,10.1-8.06,2.57-3.4,3.86-7.3,3.86-11.69,0-3.63-.53-6.62-1.59-8.97-1.06-2.34-2.54-4.31-4.43-5.9-1.89-1.59-4.16-2.91-6.81-3.97-2.65-1.06-5.56-1.96-8.74-2.72-3.63-.76-7.3-1.28-11.01-1.59-3.71-.3-7.46-.68-11.24-1.14-3.78-.45-7.49-1.06-11.12-1.82-3.63-.76-7.19-1.89-10.67-3.41-6.96-2.87-12.26-7.26-15.89-13.17-3.63-5.9-5.79-12.26-6.47-19.07-.68-6.81.11-13.58,2.38-20.32,2.27-6.73,5.9-12.52,10.9-17.37,4.84-4.39,10.63-7.53,17.37-9.42,6.73-1.89,14.19-2.99,22.36-3.29,4.54-.15,9.12,0,13.73.45,4.61.45,9.08,1.21,13.39,2.27,4.31,1.06,8.32,2.42,12.03,4.09,3.71,1.67,6.92,3.63,9.65,5.9,1.96,1.51,3.93,3.52,5.9,6.02,1.96,2.5,3.48,5.15,4.54,7.95,1.06,2.8,1.4,5.49,1.02,8.06-.38,2.57-2.01,4.77-4.88,6.58-2.42,1.51-4.73,2.16-6.92,1.93-2.2-.23-4.28-.91-6.24-2.04-1.97-1.13-3.86-2.46-5.67-3.97-1.82-1.51-3.48-2.87-4.99-4.09-4.09-3.03-9.16-5.07-15.21-6.13-6.05-1.06-11.73-1.28-17.02-.68-3.33.45-6.43,1.21-9.31,2.27-2.88,1.06-5.33,2.5-7.38,4.31s-3.63,4.05-4.77,6.7c-1.14,2.65-1.55,5.64-1.25,8.97.15,2.42.87,4.47,2.16,6.13,1.28,1.67,2.87,3.03,4.77,4.09,1.89,1.06,3.97,1.89,6.24,2.5,2.27.61,4.54,1.06,6.81,1.36,6.81.91,13.62,1.59,20.43,2.04,6.81.45,13.47,1.97,19.98,4.54,6.66,2.57,12.33,6.05,17.03,10.44,4.69,4.39,8.02,9.69,9.99,15.89Z"/><path class="cls-5" d="M1548.9,1899.08c.76,2.12,1.32,4.5,1.7,7.15.38,2.65.57,5.33.57,8.06s-.19,5.41-.57,8.06c-.38,2.65-.87,4.96-1.48,6.92-2.42,8.48-7.26,15.55-14.53,21.22-7.26,5.67-15.55,9.8-24.86,12.37-9.31,2.57-18.92,3.48-28.83,2.72-9.91-.76-18.73-3.25-26.45-7.49-4.84-2.72-9.01-6.05-12.48-9.99-3.48-3.93-6.43-8.32-8.85-13.17-.91-1.66-1.48-3.59-1.7-5.79-.23-2.19-.04-4.31.57-6.36.6-2.04,1.59-3.86,2.95-5.45,1.36-1.59,3.25-2.69,5.68-3.29,1.51-.3,3.21-.45,5.11-.45s3.75.27,5.56.79c1.82.53,3.48,1.36,4.99,2.5,1.51,1.13,2.72,2.69,3.63,4.65,1.66,3.18,4.05,6.09,7.15,8.74,3.1,2.65,6.39,4.81,9.87,6.47,4.99,1.67,10.02,2.35,15.1,2.04,5.07-.3,9.68-1.44,13.85-3.41,4.16-1.96,7.53-4.65,10.1-8.06,2.57-3.4,3.86-7.3,3.86-11.69,0-3.63-.53-6.62-1.59-8.97-1.06-2.34-2.54-4.31-4.43-5.9-1.89-1.59-4.16-2.91-6.81-3.97-2.65-1.06-5.56-1.96-8.74-2.72-3.63-.76-7.3-1.28-11.01-1.59-3.71-.3-7.46-.68-11.24-1.14-3.78-.45-7.49-1.06-11.12-1.82-3.63-.76-7.19-1.89-10.67-3.41-6.96-2.87-12.26-7.26-15.89-13.17-3.63-5.9-5.79-12.26-6.47-19.07-.68-6.81.11-13.58,2.38-20.32,2.27-6.73,5.9-12.52,10.9-17.37,4.84-4.39,10.63-7.53,17.37-9.42,6.73-1.89,14.19-2.99,22.36-3.29,4.54-.15,9.12,0,13.73.45,4.61.45,9.08,1.21,13.39,2.27,4.31,1.06,8.32,2.42,12.03,4.09,3.71,1.67,6.92,3.63,9.65,5.9,1.96,1.51,3.93,3.52,5.9,6.02,1.96,2.5,3.48,5.15,4.54,7.95,1.06,2.8,1.4,5.49,1.02,8.06-.38,2.57-2.01,4.77-4.88,6.58-2.42,1.51-4.73,2.16-6.92,1.93-2.2-.23-4.28-.91-6.24-2.04-1.97-1.13-3.86-2.46-5.67-3.97-1.82-1.51-3.48-2.87-4.99-4.09-4.09-3.03-9.16-5.07-15.21-6.13-6.05-1.06-11.73-1.28-17.02-.68-3.33.45-6.43,1.21-9.31,2.27-2.88,1.06-5.33,2.5-7.38,4.31s-3.63,4.05-4.77,6.7c-1.14,2.65-1.55,5.64-1.25,8.97.15,2.42.87,4.47,2.16,6.13,1.28,1.67,2.87,3.03,4.77,4.09,1.89,1.06,3.97,1.89,6.24,2.5,2.27.61,4.54,1.06,6.81,1.36,6.81.91,13.62,1.59,20.43,2.04,6.81.45,13.47,1.97,19.98,4.54,6.66,2.57,12.33,6.05,17.03,10.44,4.69,4.39,8.02,9.69,9.99,15.89Z"/><path class="cls-5" d="M1686.46,1955.15c.15,1.51,0,2.95-.45,4.31-.3.91-.72,1.67-1.25,2.27-.53.61-1.17,1.21-1.93,1.82-1.36.91-3.03,1.74-4.99,2.5-1.21.3-2.38.57-3.52.79-1.13.23-2.31.19-3.52-.11-2.42-.15-4.54-1.06-6.36-2.72-2.57-2.12-4.69-4.46-6.36-7.04-.76-1.21-1.59-2.57-2.5-4.09-.91-1.51-1.74-3.1-2.5-4.77l-25.2-47.9c-1.21,0-2.42.04-3.63.11-1.21.08-2.42.19-3.63.34-3.18.3-6.17.38-8.97.23-2.8-.15-5.71-.15-8.74,0h-4.31v41.09c0,1.21-.04,2.35-.11,3.41-.08,1.06-.11,2.2-.11,3.41,0,.76-.04,1.74-.11,2.95-.08,1.21-.19,2.35-.34,3.4-.31,1.67-.99,3.37-2.04,5.11-1.06,1.74-2.5,3.22-4.31,4.43-3.18,1.96-7.04,2.5-11.58,1.59-1.97-.45-3.86-1.21-5.67-2.27-.61-.45-1.14-1.02-1.59-1.7-.45-.68-.83-1.4-1.13-2.16-.31-.75-.57-1.55-.79-2.38-.23-.83-.49-1.62-.79-2.38-.45-1.51-.68-2.95-.68-4.31v-128.94c0-.91.04-1.85.11-2.84.07-.98.19-1.85.34-2.61.15-1.66.68-3.33,1.59-4.99.45-1.82,1.21-3.1,2.27-3.86.91-.91,2.31-1.7,4.2-2.38,1.89-.68,4.65-.94,8.29-.79,6.81.15,13.54.23,20.2.23s13.31.15,19.98.45c4.39.3,9.04.79,13.96,1.48,4.92.68,9.5,1.85,13.73,3.52,2.72,1.06,5.22,2.12,7.49,3.18,2.87,1.67,5.14,3.26,6.81,4.77,5.3,4.84,9.31,10.67,12.03,17.48,2.72,6.81,4.09,13.7,4.09,20.66,0,8.17-1.93,15.66-5.79,22.47-3.86,6.81-10.03,11.88-18.5,15.21-.3.3-.72.49-1.25.57-.53.08-.95.19-1.25.34l20.88,41.99,2.04,3.63c.3.61.68,1.29,1.13,2.04.45.76.83,1.51,1.14,2.27.45.76.87,1.59,1.25,2.5.38.91.79,1.74,1.25,2.5.45,2.12.83,3.86,1.13,5.22ZM1629.71,1874.34c2.72,0,5.33-.49,7.83-1.48,2.5-.98,4.77-2.31,6.81-3.97,2.04-1.66,3.75-3.59,5.11-5.79,1.36-2.19,2.12-4.58,2.27-7.15.6-7.57-1.36-13.2-5.9-16.91-4.54-3.71-10.52-5.71-17.93-6.02-4.39-.3-9.19-.45-14.41-.45h-14.87c.15,6.21.19,12.52.11,18.96-.08,6.43-.11,14.04-.11,22.81h31.1Z"/><path class="cls-5" d="M1745.02,1809.87c10.14-3.78,19.33-5.45,27.58-4.99,8.25.45,15.62,2.54,22.13,6.24,6.5,3.71,12.07,8.67,16.68,14.87,4.61,6.21,8.36,13.17,11.24,20.88,2.27,5.75,4.01,11.8,5.22,18.16,1.21,6.36,1.93,12.68,2.16,18.96.23,6.28,0,12.45-.68,18.5-.68,6.05-1.78,11.66-3.29,16.8-.91,3.48-1.97,6.66-3.18,9.53-1.21,2.88-2.65,5.75-4.31,8.63-3.78,6.51-8.67,11.8-14.64,15.89-5.98,4.09-12.52,6.96-19.64,8.63-4.84,1.21-9.84,1.78-14.98,1.7-5.15-.07-10.21-.76-15.21-2.04-4.99-1.28-9.8-3.18-14.41-5.67-4.62-2.5-8.82-5.64-12.6-9.42-4.69-4.54-8.55-9.8-11.58-15.78-3.03-5.98-5.37-12.26-7.04-18.84-1.67-6.58-2.72-13.2-3.18-19.86-.45-6.66-.45-13.01,0-19.07.45-5.6,1.55-11.58,3.29-17.93,1.74-6.36,4.27-12.49,7.6-18.39,3.33-5.9,7.38-11.24,12.14-16,4.77-4.77,10.33-8.36,16.68-10.78ZM1798.14,1907.02c1.82-7.11,2.57-15.13,2.27-24.06-.31-8.93-1.74-17.33-4.31-25.2-1.67-4.84-3.75-9.12-6.24-12.83-2.5-3.71-5.45-6.54-8.85-8.51-3.4-1.96-7.38-2.95-11.92-2.95s-9.61,1.36-15.21,4.09c-3.33,1.67-6.17,3.94-8.51,6.81-2.35,2.88-4.24,6.13-5.68,9.76-1.44,3.63-2.57,7.42-3.4,11.35-.83,3.94-1.33,7.72-1.48,11.35-.31,3.94-.38,8.06-.23,12.37.15,4.31.64,8.63,1.48,12.94.83,4.31,2,8.4,3.52,12.26,1.51,3.86,3.55,7.3,6.13,10.33,3.93,4.54,8.51,7.68,13.73,9.42,5.22,1.74,10.4,2.01,15.55.79,8.32-1.82,14.68-7.34,19.07-16.57,1.82-3.33,3.18-7.11,4.09-11.35Z"/><path class="cls-5" d="M1981.78,1949.7c.15.91.26,1.78.34,2.61.07.83.11,1.78.11,2.84,0,1.82-.53,3.48-1.59,4.99-.45.76-1.06,1.48-1.82,2.16-.76.68-1.67,1.25-2.72,1.7-3.78,2.12-7.8,2.87-12.03,2.27-2.12-.61-4.01-1.59-5.68-2.95-.3-.3-.53-.49-.68-.57-.15-.07-.31-.26-.45-.57-.15-.15-.31-.34-.45-.57-.15-.23-.38-.42-.68-.57-.76-.76-1.36-1.48-1.82-2.16-.45-.68-.91-1.4-1.36-2.16-.31-.75-.65-1.47-1.02-2.16-.38-.68-.79-1.4-1.25-2.16-.31-.6-.61-1.17-.91-1.7-.3-.53-.53-1.1-.68-1.7-.61-1.36-.99-2.57-1.14-3.63l-4.77-11.12c-10.44,0-20.85.04-31.21.11-10.37.08-20.77.04-31.21-.11l-4.77,11.12c-.31.61-.49,1.21-.57,1.82-.08.61-.27,1.21-.57,1.82-.31.61-.57,1.17-.79,1.7-.23.53-.49,1.1-.79,1.7-.45.76-.87,1.48-1.25,2.16-.38.68-.79,1.4-1.25,2.16-.31.76-.68,1.48-1.14,2.16-.45.68-1.06,1.4-1.82,2.16-.31.15-.53.34-.68.57-.15.23-.31.42-.45.57-.15.31-.3.49-.45.57-.15.08-.38.27-.68.57-1.67,1.36-3.56,2.34-5.67,2.95-4.24.6-8.25-.15-12.03-2.27-1.06-.45-1.97-1.02-2.72-1.7-.76-.68-1.36-1.4-1.82-2.16-1.06-1.51-1.59-3.18-1.59-4.99,0-1.06.04-2,.11-2.84.07-.83.19-1.7.34-2.61.3-1.36.68-2.72,1.13-4.09l.68-2.04,47.22-116.22,1.36-3.63c.3-.91.68-1.74,1.13-2.5.45-.76.83-1.66,1.14-2.72.76-1.97,1.59-3.71,2.5-5.22.45-.91.98-1.74,1.59-2.5.6-.75,1.21-1.51,1.82-2.27.91-1.21,2.19-2.19,3.86-2.95,2.12-.76,4.58-1.13,7.38-1.13s5.26.38,7.38,1.13c1.66.76,2.95,1.74,3.86,2.95,1.06,1.36,2.19,2.95,3.4,4.77.91,1.51,1.74,3.26,2.5,5.22.3,1.06.68,1.97,1.13,2.72.45.76.83,1.59,1.14,2.5l1.36,3.63,47.22,116.22.68,2.04c.45,1.36.83,2.72,1.14,4.09ZM1927.98,1894.09c-1.97-4.39-3.97-8.93-6.02-13.62-2.04-4.69-4.2-9.46-6.47-14.3-.61-1.36-1.21-2.76-1.82-4.2-.61-1.44-1.21-2.84-1.82-4.2-.45,1.36-.99,2.76-1.59,4.2-.61,1.44-1.21,2.84-1.82,4.2-2.27,4.84-4.43,9.61-6.47,14.3-2.04,4.69-4.05,9.23-6.02,13.62l-4.09,9.99h40.18l-4.09-9.99Z"/><path class="cls-5" d="M2119.79,1873.88c.3,4.99.26,10.14-.11,15.44-.38,5.3-.95,10.44-1.7,15.44-1.51,8.63-4.31,17.02-8.4,25.2-4.09,8.17-10.07,15.13-17.93,20.88-8.17,6.05-17.48,10.18-27.92,12.37-10.44,2.19-20.81,3.52-31.1,3.97-3.48.3-7,.42-10.56.34-3.56-.08-7-.49-10.33-1.25-2.72-.45-4.77-1.28-6.13-2.5-.76-.45-1.36-1.06-1.82-1.82-.45-.76-.83-1.51-1.13-2.27-.45-.75-.79-1.55-1.02-2.38-.23-.83-.49-1.7-.79-2.61-.15-.75-.27-1.48-.34-2.16-.08-.68-.11-1.32-.11-1.93v-132.57c0-.91.15-1.82.45-2.72.3-2.12.76-3.86,1.36-5.22.6-1.82,1.44-3.1,2.5-3.86.91-.75,1.82-1.32,2.72-1.7.91-.38,1.74-.72,2.5-1.02.91-.3,1.85-.34,2.84-.11.98.23,2.08.04,3.29-.57l37.91.91c9.99.31,18.92,2.61,26.79,6.92,7.87,4.31,14.6,9.8,20.2,16.46,5.6,6.66,9.99,14.11,13.17,22.36,3.18,8.25,5.07,16.38,5.67,24.4ZM2077.57,1917.01c2.87-4.54,4.99-9.76,6.36-15.66,1.36-5.9,1.96-11.92,1.82-18.05-.15-6.13-.99-12.11-2.5-17.93-1.51-5.82-3.63-11.01-6.36-15.55-2.12-3.33-4.85-6.05-8.17-8.17-3.33-2.12-7.04-3.75-11.12-4.88-4.09-1.14-8.44-1.93-13.05-2.38-4.62-.45-9.12-.68-13.51-.68.15,4.39.23,8.63.23,12.71v12.94c-.15,5.45-.23,10.75-.23,15.89v61.29c4.69-.15,9.19-.42,13.51-.79,4.31-.38,8.47-1.25,12.48-2.61,4.01-1.36,7.72-3.29,11.12-5.79,3.41-2.5,6.54-5.94,9.42-10.33Z"/><path class="cls-5" d="M2255.99,1899.08c.76,2.12,1.32,4.5,1.7,7.15.38,2.65.57,5.33.57,8.06s-.19,5.41-.57,8.06c-.38,2.65-.87,4.96-1.48,6.92-2.42,8.48-7.26,15.55-14.53,21.22-7.26,5.67-15.55,9.8-24.86,12.37-9.31,2.57-18.92,3.48-28.83,2.72-9.91-.76-18.73-3.25-26.45-7.49-4.84-2.72-9.01-6.05-12.48-9.99-3.48-3.93-6.43-8.32-8.85-13.17-.91-1.66-1.48-3.59-1.7-5.79-.23-2.19-.04-4.31.57-6.36.6-2.04,1.59-3.86,2.95-5.45,1.36-1.59,3.25-2.69,5.68-3.29,1.51-.3,3.21-.45,5.11-.45s3.75.27,5.56.79c1.82.53,3.48,1.36,4.99,2.5,1.51,1.13,2.72,2.69,3.63,4.65,1.66,3.18,4.05,6.09,7.15,8.74,3.1,2.65,6.39,4.81,9.87,6.47,4.99,1.67,10.02,2.35,15.1,2.04,5.07-.3,9.68-1.44,13.85-3.41,4.16-1.96,7.53-4.65,10.1-8.06,2.57-3.4,3.86-7.3,3.86-11.69,0-3.63-.53-6.62-1.59-8.97-1.06-2.34-2.54-4.31-4.43-5.9-1.89-1.59-4.16-2.91-6.81-3.97-2.65-1.06-5.56-1.96-8.74-2.72-3.63-.76-7.3-1.28-11.01-1.59-3.71-.3-7.46-.68-11.24-1.14-3.78-.45-7.49-1.06-11.12-1.82-3.63-.76-7.19-1.89-10.67-3.41-6.96-2.87-12.26-7.26-15.89-13.17-3.63-5.9-5.79-12.26-6.47-19.07-.68-6.81.11-13.58,2.38-20.32,2.27-6.73,5.9-12.52,10.9-17.37,4.84-4.39,10.63-7.53,17.37-9.42,6.73-1.89,14.19-2.99,22.36-3.29,4.54-.15,9.12,0,13.73.45,4.61.45,9.08,1.21,13.39,2.27,4.31,1.06,8.32,2.42,12.03,4.09,3.71,1.67,6.92,3.63,9.65,5.9,1.96,1.51,3.93,3.52,5.9,6.02,1.96,2.5,3.48,5.15,4.54,7.95,1.06,2.8,1.4,5.49,1.02,8.06-.38,2.57-2.01,4.77-4.88,6.58-2.42,1.51-4.73,2.16-6.92,1.93-2.2-.23-4.28-.91-6.24-2.04-1.97-1.13-3.86-2.46-5.67-3.97-1.82-1.51-3.48-2.87-4.99-4.09-4.09-3.03-9.16-5.07-15.21-6.13-6.05-1.06-11.73-1.28-17.02-.68-3.33.45-6.43,1.21-9.31,2.27-2.88,1.06-5.33,2.5-7.38,4.31s-3.63,4.05-4.77,6.7c-1.14,2.65-1.55,5.64-1.25,8.97.15,2.42.87,4.47,2.16,6.13,1.28,1.67,2.87,3.03,4.77,4.09,1.89,1.06,3.97,1.89,6.24,2.5,2.27.61,4.54,1.06,6.81,1.36,6.81.91,13.62,1.59,20.43,2.04,6.81.45,13.47,1.97,19.98,4.54,6.66,2.57,12.33,6.05,17.03,10.44,4.69,4.39,8.02,9.69,9.99,15.89Z"/><path class="cls-7" d="M2384.69,1809.87c10.14-3.78,19.33-5.45,27.58-4.99,8.25.45,15.62,2.54,22.13,6.24,6.5,3.71,12.07,8.67,16.68,14.87,4.61,6.21,8.36,13.17,11.24,20.88,2.27,5.75,4.01,11.8,5.22,18.16,1.21,6.36,1.93,12.68,2.16,18.96.23,6.28,0,12.45-.68,18.5-.68,6.05-1.78,11.66-3.29,16.8-.91,3.48-1.97,6.66-3.18,9.53-1.21,2.88-2.65,5.75-4.31,8.63-3.79,6.51-8.67,11.8-14.64,15.89-5.98,4.09-12.52,6.96-19.64,8.63-4.84,1.21-9.84,1.78-14.98,1.7-5.15-.07-10.21-.76-15.21-2.04-4.99-1.28-9.8-3.18-14.41-5.67-4.62-2.5-8.82-5.64-12.6-9.42-4.69-4.54-8.55-9.8-11.58-15.78-3.03-5.98-5.37-12.26-7.04-18.84-1.67-6.58-2.72-13.2-3.18-19.86-.45-6.66-.45-13.01,0-19.07.45-5.6,1.55-11.58,3.29-17.93,1.74-6.36,4.27-12.49,7.6-18.39,3.33-5.9,7.38-11.24,12.14-16,4.77-4.77,10.33-8.36,16.68-10.78ZM2437.81,1907.02c1.82-7.11,2.57-15.13,2.27-24.06-.31-8.93-1.74-17.33-4.31-25.2-1.67-4.84-3.75-9.12-6.24-12.83-2.5-3.71-5.45-6.54-8.85-8.51-3.4-1.96-7.38-2.95-11.92-2.95s-9.61,1.36-15.21,4.09c-3.33,1.67-6.17,3.94-8.51,6.81-2.35,2.88-4.24,6.13-5.68,9.76-1.44,3.63-2.57,7.42-3.4,11.35-.83,3.94-1.33,7.72-1.48,11.35-.31,3.94-.38,8.06-.23,12.37.15,4.31.64,8.63,1.48,12.94.83,4.31,2,8.4,3.52,12.26,1.51,3.86,3.55,7.3,6.13,10.33,3.93,4.54,8.51,7.68,13.73,9.42,5.22,1.74,10.4,2.01,15.55.79,8.32-1.82,14.68-7.34,19.07-16.57,1.82-3.33,3.18-7.11,4.09-11.35Z"/><path class="cls-7" d="M2594.21,1811.23c1.36,1.82,2.19,3.94,2.5,6.36,0,.91-.04,1.78-.11,2.61-.08.83-.19,1.63-.34,2.38-.15,1.67-1.13,3.26-2.95,4.77-1.06.76-2.42,1.51-4.09,2.27-.91.3-1.86.49-2.84.57-.99.08-2.08.19-3.29.34-.91.31-1.89.45-2.95.45h-13.39l-47.44.23v.68l-.23,37h3.97c1.44,0,3.21-.07,5.33-.23h16.23c4.77,0,10.02.08,15.78.23h1.36c1.66,0,3.37.04,5.11.11,1.74.08,3.52.11,5.33.11,1.66.15,3.33.34,4.99.57,1.66.23,3.33.65,4.99,1.25,2.72.91,4.69,2.35,5.9,4.31,1.66,1.97,2.5,4.01,2.5,6.13v2.61c0,.83-.15,1.7-.45,2.61-.15,1.21-1.13,2.72-2.95,4.54-1.21,1.06-2.65,1.74-4.31,2.04-.76.3-1.63.57-2.61.79-.99.23-2.01.42-3.06.57-1.06.15-2.08.27-3.06.34-.99.08-2.08.11-3.29.11h-10.44l-41.77.23-.68,52.66v1.82c0,.76-.04,1.47-.11,2.16-.08.68-.19,1.4-.34,2.16-.3.76-.57,1.55-.79,2.38-.23.83-.49,1.63-.79,2.38-1.06,2.12-2.04,3.56-2.95,4.31-1.67,1.21-3.71,2.04-6.13,2.5-4.09.91-7.94.45-11.58-1.36-.76-.45-1.48-1.02-2.16-1.7-.68-.68-1.25-1.55-1.7-2.61-.3-.6-.45-1.06-.45-1.36l-.68-1.36c-.45-.75-.76-1.55-.91-2.38-.15-.83-.3-1.62-.45-2.38,0-.76-.04-1.51-.11-2.27-.08-.75-.19-1.51-.34-2.27-.15-1.21-.15-2.42,0-3.63v-3.63l.23-17.71.23-32.69c.15-4.84.23-9.76.23-14.75v-15.44c-.15-5.45-.19-10.29-.11-14.53.08-4.24.26-8.85.57-13.85v-1.14c.15-1.66.23-3.21.23-4.65s.15-2.91.45-4.43c.3-3.33,1.06-6.28,2.27-8.85,1.06-2.57,2.57-4.39,4.54-5.45,2.27-1.36,4.69-2.04,7.26-2.04,1.21,0,2.19.08,2.95.23v-.23h11.35c1.51,0,3.18-.04,4.99-.11,1.82-.07,4.23-.11,7.26-.11,12.11-.15,24.06-.15,35.87,0h1.13c1.66.15,3.37.23,5.11.23s3.52.08,5.33.23c1.66,0,3.33.19,4.99.57,1.66.38,3.33.87,4.99,1.48,2.57.76,4.54,2.04,5.9,3.86Z"/><path class="cls-8" d="M2789.66,1948.79c1.21,2.27,1.28,4.54.23,6.81-.76,2.42-2.04,4.24-3.86,5.45-.91.76-1.74,1.4-2.5,1.93-.76.53-1.59.95-2.5,1.25-1.67.91-3.63,1.21-5.9.91-.91,0-1.74-.15-2.5-.45-.76-.3-1.51-.68-2.27-1.13-.76-.45-1.55-.94-2.38-1.48-.83-.53-1.63-1.1-2.38-1.7-.91-.76-1.74-1.44-2.5-2.04-.76-.6-1.44-1.28-2.04-2.04-.76-.76-1.44-1.51-2.04-2.27-.61-.76-1.21-1.44-1.82-2.04l-2.72-2.95-43.58-45.63.68,45.63v2.04c0,.61-.08,1.25-.23,1.93-.15.68-.3,1.4-.45,2.16-.45,1.97-.99,3.71-1.59,5.22-.3.91-.72,1.67-1.25,2.27-.53.61-1.1,1.21-1.7,1.82-1.67,1.51-3.63,2.34-5.9,2.5-2.27.75-4.35,1.02-6.24.79-1.89-.23-3.82-.79-5.79-1.7-1.51-.91-2.88-2.42-4.09-4.54-.31-.6-.53-.98-.68-1.13,0-.15-.15-.68-.45-1.59-.91-1.51-1.36-3.03-1.36-4.54-.15-.91-.27-1.74-.34-2.5-.08-.76-.19-1.59-.34-2.5-.15-.6-.23-1.21-.23-1.82v-1.82c.15-.75.23-1.4.23-1.93v-1.93l-.23-17.93-.23-33.37c0-9.68-.23-20.12-.68-31.33-.15-5.45-.23-10.29-.23-14.53s.07-9,.23-14.3v-.91c.3-1.66.45-3.29.45-4.88s.07-3.14.23-4.65c0-3.03.68-6.05,2.04-9.08.91-2.27,2.5-4.09,4.77-5.45,1.21-.76,2.38-1.25,3.52-1.48,1.13-.23,2.38-.49,3.75-.79,1.06,0,2.08.08,3.06.23.98.15,1.93.3,2.84.45,1.96.31,3.78,1.14,5.45,2.5.45.45.87.99,1.25,1.59.38.61.72,1.36,1.02,2.27.76,1.21,1.28,2.95,1.59,5.22.15.91.26,1.82.34,2.72.07.91.11,1.89.11,2.95v9.31l.23,27.69c2.42-2.12,4.8-4.31,7.15-6.58,2.34-2.27,4.65-4.69,6.92-7.26,4.09-4.23,8.13-8.36,12.14-12.37,4.01-4.01,8.06-7.98,12.14-11.92l.68-.68c1.21-1.21,2.46-2.38,3.75-3.52,1.28-1.13,2.53-2.23,3.75-3.29,2.27-2.57,5.07-4.39,8.4-5.45,2.12-1.36,4.61-1.89,7.49-1.59,1.36.15,2.61.45,3.75.91,1.13.45,2.23,1.06,3.29,1.82.75.76,1.51,1.4,2.27,1.93.76.53,1.36,1.17,1.82,1.93,1.21,1.06,1.96,2.65,2.27,4.77,0,1.67-.3,3.18-.91,4.54-.45.76-.91,1.51-1.36,2.27-.45.76-.99,1.51-1.59,2.27-.76.91-1.44,1.74-2.04,2.5-.61.76-1.29,1.51-2.04,2.27-.61.76-1.25,1.44-1.93,2.04-.68.61-1.33,1.29-1.93,2.04l-2.95,2.95-42.45,43.36c2.27,2.27,4.65,4.65,7.15,7.15,2.5,2.5,4.88,4.92,7.15,7.26,2.27,2.35,4.39,4.54,6.36,6.58,1.96,2.04,3.63,3.75,4.99,5.11,4.09,4.24,8.02,8.44,11.8,12.6,3.78,4.16,7.49,8.36,11.12,12.6l.68.68c1.21,1.21,2.34,2.46,3.4,3.75,1.06,1.29,2.04,2.54,2.95,3.75,2.27,2.58,3.86,5.37,4.77,8.4Z"/><path class="cls-8" d="M2932.44,1947.88c-.15,2.58-.49,5.3-1.02,8.17-.53,2.88-2.01,5.22-4.43,7.04-1.82,1.51-3.86,2.42-6.13,2.72-2.27.3-4.5.19-6.7-.34-2.2-.53-4.28-1.36-6.24-2.5-1.97-1.13-3.56-2.53-4.77-4.2-5.15-6.36-9.87-12.9-14.19-19.63-4.31-6.73-8.67-13.51-13.05-20.32l-19.07-28.83c-2.58-4.09-5.3-8.66-8.17-13.73-2.88-5.07-5.83-9.8-8.85-14.19l-.68,86.71v2.04c0,2.42-.42,4.81-1.25,7.15-.83,2.35-2.23,4.35-4.2,6.02-1.51,1.21-3.48,2.04-5.9,2.5-3.78.75-6.92.53-9.42-.68-2.5-1.21-4.47-2.87-5.9-4.99-1.44-2.12-2.42-4.58-2.95-7.38-.53-2.8-.65-5.56-.34-8.29v-3.86l.45-17.71.23-32.92c.15-4.84.23-9.8.23-14.87v-15.55c-.15-6.5-.11-13.39.11-20.66.23-7.26.49-14.07.79-20.43.3-3.48,1.13-6.43,2.5-8.85.6-2.12,2.19-3.93,4.77-5.45,1.66-1.06,3.82-1.74,6.47-2.04,2.65-.3,4.96-.23,6.92.23.76.3,1.51.65,2.27,1.02.76.38,1.51.79,2.27,1.25.76.61,1.48,1.21,2.16,1.82.68.61,1.32,1.29,1.93,2.04.76.76,1.44,1.55,2.04,2.38.6.83,1.21,1.63,1.82,2.38.45.91.91,1.74,1.36,2.5.45.76.98,1.51,1.59,2.27l2.5,3.63,52.44,82.63v-14.98c0-4.84-.04-9.8-.11-14.87-.08-5.07-.19-10.33-.34-15.78,0-6.36.04-13.17.11-20.43.07-7.26.26-14.07.57-20.43,0-2.57.76-5.52,2.27-8.85.75-1.96,2.04-3.55,3.86-4.77,1.82-1.21,3.86-2.04,6.13-2.5,2.27-.45,4.54-.45,6.81,0,2.27.45,4.23,1.36,5.9,2.72.45.45.91.99,1.36,1.59.45.61.83,1.29,1.13,2.04.76,1.97,1.21,3.71,1.36,5.22.45,2.12.68,4.01.68,5.67,0,18.92.04,38.21.11,57.88.07,19.67.19,38.97.34,57.88,0,2.12.07,4.2.23,6.24.15,2.04.15,4.12,0,6.24Z"/><path class="cls-8" d="M2991,1809.87c10.14-3.78,19.33-5.45,27.58-4.99,8.25.45,15.62,2.54,22.13,6.24,6.5,3.71,12.07,8.67,16.68,14.87,4.61,6.21,8.36,13.17,11.24,20.88,2.27,5.75,4.01,11.8,5.22,18.16,1.21,6.36,1.93,12.68,2.16,18.96.23,6.28,0,12.45-.68,18.5-.68,6.05-1.78,11.66-3.29,16.8-.91,3.48-1.97,6.66-3.18,9.53-1.21,2.88-2.65,5.75-4.31,8.63-3.78,6.51-8.67,11.8-14.64,15.89-5.98,4.09-12.52,6.96-19.63,8.63-4.85,1.21-9.84,1.78-14.98,1.7-5.15-.07-10.21-.76-15.21-2.04-4.99-1.28-9.8-3.18-14.41-5.67-4.62-2.5-8.82-5.64-12.6-9.42-4.69-4.54-8.55-9.8-11.58-15.78-3.03-5.98-5.37-12.26-7.04-18.84-1.67-6.58-2.72-13.2-3.18-19.86-.45-6.66-.45-13.01,0-19.07.45-5.6,1.55-11.58,3.29-17.93,1.74-6.36,4.27-12.49,7.6-18.39,3.33-5.9,7.38-11.24,12.14-16s10.33-8.36,16.68-10.78ZM3044.12,1907.02c1.82-7.11,2.57-15.13,2.27-24.06-.31-8.93-1.74-17.33-4.31-25.2-1.67-4.84-3.75-9.12-6.24-12.83-2.5-3.71-5.45-6.54-8.85-8.51-3.4-1.96-7.38-2.95-11.92-2.95s-9.61,1.36-15.21,4.09c-3.33,1.67-6.17,3.94-8.51,6.81-2.35,2.88-4.24,6.13-5.67,9.76-1.44,3.63-2.58,7.42-3.41,11.35-.83,3.94-1.33,7.72-1.48,11.35-.3,3.94-.38,8.06-.23,12.37.15,4.31.64,8.63,1.48,12.94.83,4.31,2,8.4,3.52,12.26,1.51,3.86,3.55,7.3,6.13,10.33,3.93,4.54,8.51,7.68,13.73,9.42,5.22,1.74,10.4,2.01,15.55.79,8.32-1.82,14.68-7.34,19.07-16.57,1.82-3.33,3.18-7.11,4.09-11.35Z"/><path class="cls-8" d="M3256.59,1813.5c.6,2.88.6,5.9,0,9.08-.31,1.51-.57,2.99-.79,4.43-.23,1.44-.49,2.92-.79,4.43l-.23.91c-2.12,9.38-4.5,19.26-7.15,29.62-2.65,10.37-5.03,20.17-7.15,29.4-1.82,7.57-3.71,15.89-5.67,24.97-1.97,9.08-4.01,17.4-6.13,24.97-.76,2.58-1.55,5.15-2.38,7.72-.83,2.58-1.86,5.15-3.06,7.72-1.06,2.27-2.31,4.28-3.75,6.02-1.44,1.74-3.07,3.03-4.88,3.86-1.82.83-3.75,1.13-5.79.91-2.04-.23-4.28-1.17-6.7-2.84-3.63-2.57-6.32-6.13-8.06-10.67-1.74-4.54-3.52-8.7-5.33-12.49-.61-1.06-1.51-3.4-2.72-7.04-1.21-3.63-2.5-7.6-3.86-11.92s-2.69-8.47-3.97-12.49c-1.29-4.01-2.38-7-3.29-8.97-1.36,3.33-2.72,7.11-4.09,11.35-1.36,4.24-2.65,8.4-3.86,12.49-1.21,4.09-2.31,7.76-3.29,11.01-.99,3.26-1.7,5.64-2.16,7.15-1.21,3.03-2.54,6.36-3.97,9.99-1.44,3.63-3.18,6.74-5.22,9.31-2.04,2.57-4.5,4.27-7.38,5.11-2.88.83-6.28-.04-10.21-2.61-3.03-1.82-5.15-4.39-6.36-7.72-.76-2.12-1.51-4.16-2.27-6.13-.76-1.96-1.36-4.01-1.82-6.13l-4.54-17.02-9.31-36.55c-1.21-4.69-2.38-9.49-3.52-14.41-1.13-4.92-2.46-10.02-3.97-15.32-.76-2.57-1.4-5.11-1.93-7.6-.53-2.5-1.06-5.22-1.59-8.17-.53-2.95-1.14-6.32-1.82-10.1-.68-3.78-1.48-8.17-2.38-13.17-.3-1.66-.49-3.21-.57-4.65-.08-1.44.04-2.91.34-4.43.3-2.27,1.36-4.24,3.18-5.9.76-.76,1.66-1.36,2.72-1.82,1.06-.45,2.19-.83,3.41-1.14,1.82-.6,3.71-.91,5.67-.91,1.82,0,3.71.61,5.68,1.82,1.36.76,2.42,1.74,3.18,2.95l2.72,4.77c.3,1.06.6,2.01.91,2.84.3.83.6,1.7.91,2.61.3,1.06.53,2.01.68,2.84.15.83.3,1.63.45,2.38,1.36,7.87,3.03,15.51,4.99,22.93,1.96,7.42,3.78,14.53,5.45,21.34.6,2.72,1.36,6.09,2.27,10.1.91,4.01,1.82,8.17,2.72,12.48.91,4.31,1.82,8.44,2.72,12.37.91,3.94,1.82,7.04,2.72,9.31,1.96-6.81,3.97-13.62,6.02-20.43,2.04-6.81,4.27-13.69,6.7-20.66,1.21-3.63,2.46-6.92,3.75-9.88,1.28-2.95,2.76-5.41,4.43-7.38,1.66-1.96,3.55-3.25,5.68-3.86,2.12-.6,4.61-.38,7.49.68,2.57,1.06,4.84,3.33,6.81,6.81,1.96,3.48,3.71,7.04,5.22,10.67,1.36,3.33,2.69,6.85,3.97,10.56,1.28,3.71,2.57,7.34,3.86,10.9,1.28,3.56,2.53,6.92,3.75,10.1,1.21,3.18,2.42,5.9,3.63,8.17.45-1.66.98-3.78,1.59-6.36.6-2.57,1.25-5.33,1.93-8.29.68-2.95,1.32-5.86,1.93-8.74.6-2.87,1.21-5.52,1.82-7.94,1.96-8.17,4.01-16.38,6.13-24.63,2.12-8.25,4.16-16.38,6.13-24.4l1.13-3.86c.3-.75.49-1.55.57-2.38.07-.83.26-1.78.57-2.84.3-.91.6-1.78.91-2.61.3-.83.6-1.78.91-2.84.3-.75.64-1.55,1.02-2.38.38-.83.87-1.62,1.48-2.38.45-.76.98-1.36,1.59-1.82.6-.45,1.21-.83,1.82-1.13,2.12-1.21,3.93-1.82,5.45-1.82,1.96,0,3.86.31,5.67.91,2.42.45,4.62,1.44,6.58,2.95,1.51,1.51,2.42,3.48,2.72,5.9Z"/><path class="cls-8" d="M3380.3,1947.88c.3.76.45,1.85.45,3.29v3.52c0,1.21-.23,2.35-.68,3.41-.45,1.06-1.06,2.04-1.82,2.95-1.36,1.82-3.33,3.18-5.9,4.09-3.63,1.21-7.04,1.82-10.21,1.82-1.67.15-3.41.23-5.22.23s-3.63.15-5.45.45h-.91c-11.66.15-23.69.15-36.09,0-3.03-.15-6.43-.11-10.21.11-3.79.23-7.49.15-11.12-.23-3.63-.38-6.92-1.29-9.88-2.72-2.95-1.44-5.03-3.75-6.24-6.92-.3-.76-.53-1.48-.68-2.16-.15-.68-.23-1.4-.23-2.16-.61-5.14-.83-10.21-.68-15.21.15-4.99.23-9.91.23-14.75l.45-32.92v-30.42c0-5.45.04-10.29.11-14.53.08-4.23.19-8.93.34-14.07v-1.14c.15-1.51.26-3.03.34-4.54.07-1.51.11-3.03.11-4.54.3-3.48,1.13-6.43,2.5-8.85.91-2.27,2.5-4.09,4.77-5.45,1.97-1.36,4.31-2.04,7.04-2.04,1.06,0,2.08.04,3.06.11.98.08,1.93.19,2.84.34.91.15,1.78.45,2.61.91.83.45,1.7,1.06,2.61,1.82.91,1.06,1.74,2.35,2.5,3.86.6,1.67.98,3.33,1.13,4.99.15,1.06.3,2.04.45,2.95.15.91.23,1.82.23,2.72-.31.91-.45,1.82-.45,2.72v6.58l-.91,106.92,44.95.45h10.67c.91,0,1.89.04,2.95.11,1.06.08,2.12.19,3.18.34,1.21.15,2.27.31,3.18.45.91.15,1.82.38,2.72.68,1.66.45,3.03,1.21,4.09,2.27,1.66,1.51,2.72,3.03,3.18,4.54Z"/><path class="cls-8" d="M3430.02,1831.66l-.45,35.64h9.08c6.2-.15,11.73-.23,16.57-.23s10.21.08,16.12.23h1.13c1.82,0,3.59.04,5.33.11,1.74.08,3.44.11,5.11.11,1.82.15,3.55.42,5.22.79,1.66.38,3.33.79,4.99,1.25,2.57.91,4.69,2.27,6.36,4.09,1.51,1.97,2.27,4.16,2.27,6.58v2.61c0,.99-.15,1.85-.45,2.61-.3,1.67-1.29,3.18-2.95,4.54-.76,1.06-2.2,1.82-4.31,2.27-1.97.61-3.94.99-5.9,1.13-2.12.45-4.24.68-6.36.68h-10.67l-41.99.23-.45,44.49,45.17.45h14.07c1.06,0,2.04.08,2.95.23,1.21.31,2.31.49,3.29.57.98.08,1.93.27,2.84.57,1.82.61,3.33,1.44,4.54,2.5,1.51,1.51,2.5,3.1,2.95,4.77.15.76.26,1.55.34,2.38.07.83.04,1.7-.11,2.61,0,2.42-.76,4.62-2.27,6.58-1.82,2.12-3.94,3.48-6.36,4.09-3.18,1.36-6.66,2.04-10.44,2.04-1.67.15-3.41.23-5.22.23s-3.56.08-5.22.23h-1.36c-11.8.3-24.06.3-36.77,0-3.03,0-5.45-.04-7.26-.11-1.82-.08-3.44-.11-4.88-.11h-10.33c-3.48.3-6.36-.3-8.63-1.82-1.67-1.06-2.95-2.5-3.86-4.31-.45-.45-.68-.91-.68-1.36-.15-.3-.31-.53-.45-.68-.15-.15-.3-.38-.45-.68-.3-.76-.53-1.55-.68-2.38-.15-.83-.23-1.62-.23-2.38-.15-.75-.27-1.51-.34-2.27-.08-.76-.19-1.51-.34-2.27v-3.63c0-.6.04-1.21.11-1.82.07-.6.11-1.21.11-1.82v-17.71l.45-32.69v-30.19c0-5.45.04-10.29.11-14.53.08-4.23.19-8.85.34-13.85v-1.13c.15-1.66.26-3.21.34-4.65.07-1.44.11-2.91.11-4.43.15-3.03.98-5.98,2.5-8.85.6-1.21,1.25-2.27,1.93-3.18.68-.91,1.62-1.66,2.84-2.27,2.27-1.36,4.62-2.04,7.04-2.04,1.21,0,2.12.08,2.72.23v-.23h11.46c1.59,0,3.29-.04,5.11-.11,1.82-.07,4.31-.11,7.49-.11,6.05-.15,11.8-.23,17.25-.23s11.04.08,16.8.23h.91c1.66.15,3.41.23,5.22.23s3.55.08,5.22.23c1.66,0,3.33.19,4.99.57,1.66.38,3.33.87,4.99,1.48,2.57.76,4.69,2.04,6.36,3.86,1.36,2.12,2.04,4.24,2.04,6.36v2.61c0,.83-.15,1.63-.45,2.38-.15,1.51-1.06,3.1-2.72,4.77-.61.3-1.25.68-1.93,1.13s-1.48.83-2.38,1.13c-.91.3-1.85.49-2.84.57-.99.08-1.93.19-2.84.34-1.21.3-2.31.45-3.29.45h-13.51l-45.4.23v.68Z"/><path class="cls-8" d="M3642.94,1873.88c.3,4.99.26,10.14-.11,15.44-.38,5.3-.95,10.44-1.7,15.44-1.51,8.63-4.31,17.02-8.4,25.2-4.09,8.17-10.07,15.13-17.93,20.88-8.17,6.05-17.48,10.18-27.92,12.37-10.44,2.19-20.81,3.52-31.1,3.97-3.48.3-7,.42-10.56.34-3.56-.08-7-.49-10.33-1.25-2.72-.45-4.77-1.28-6.13-2.5-.76-.45-1.36-1.06-1.82-1.82-.45-.76-.83-1.51-1.14-2.27-.45-.75-.79-1.55-1.02-2.38-.23-.83-.49-1.7-.79-2.61-.15-.75-.27-1.48-.34-2.16-.08-.68-.11-1.32-.11-1.93v-132.57c0-.91.15-1.82.45-2.72.3-2.12.75-3.86,1.36-5.22.6-1.82,1.44-3.1,2.5-3.86.91-.75,1.82-1.32,2.72-1.7.91-.38,1.74-.72,2.5-1.02.91-.3,1.85-.34,2.84-.11.98.23,2.08.04,3.29-.57l37.91.91c9.99.31,18.92,2.61,26.79,6.92,7.87,4.31,14.6,9.8,20.2,16.46,5.6,6.66,9.99,14.11,13.17,22.36,3.18,8.25,5.07,16.38,5.68,24.4ZM3600.72,1917.01c2.87-4.54,4.99-9.76,6.36-15.66,1.36-5.9,1.96-11.92,1.82-18.05-.15-6.13-.99-12.11-2.5-17.93-1.51-5.82-3.63-11.01-6.36-15.55-2.12-3.33-4.84-6.05-8.17-8.17-3.33-2.12-7.04-3.75-11.12-4.88-4.09-1.14-8.44-1.93-13.05-2.38-4.62-.45-9.12-.68-13.51-.68.15,4.39.23,8.63.23,12.71v12.94c-.15,5.45-.23,10.75-.23,15.89v61.29c4.69-.15,9.19-.42,13.51-.79,4.31-.38,8.47-1.25,12.49-2.61,4.01-1.36,7.72-3.29,11.12-5.79,3.4-2.5,6.54-5.94,9.42-10.33Z"/><path class="cls-8" d="M3781.63,1911.11c0,4.54-.23,9.12-.68,13.73-.45,4.62-1.36,9.08-2.72,13.39-1.36,4.31-3.41,8.4-6.13,12.26s-6.43,7.23-11.12,10.1c-2.27,1.51-4.96,2.76-8.06,3.75-3.1.98-6.36,1.82-9.76,2.5-3.41.68-6.77,1.14-10.1,1.36-3.33.23-6.43.26-9.31.11-13.62-.45-24.63-3.75-33.03-9.87-8.4-6.13-14.83-13.73-19.29-22.81-4.46-9.08-7.34-18.96-8.63-29.62-1.29-10.67-1.55-20.84-.79-30.53.45-5.75,1.48-11.95,3.06-18.61,1.59-6.66,3.93-13.09,7.04-19.29,3.1-6.2,6.96-11.8,11.58-16.8,4.61-4.99,10.1-8.77,16.46-11.35,5.9-2.42,12.37-3.97,19.41-4.65,7.04-.68,14-.41,20.88.79,6.88,1.21,13.31,3.41,19.29,6.58,5.98,3.18,10.7,7.42,14.19,12.71,2.42,3.94,4.31,8.7,5.67,14.3,1.36,5.6,1.59,10.97.68,16.12-.76,4.54-2.35,7.68-4.77,9.42-2.42,1.74-5.07,2.42-7.95,2.04-2.88-.38-5.64-1.59-8.29-3.63-2.65-2.04-4.43-4.65-5.33-7.83-1.06-3.48-2.35-6.7-3.86-9.65-1.51-2.95-3.86-5.41-7.04-7.38-3.63-2.27-7.46-3.55-11.46-3.86-4.01-.3-7.87.15-11.58,1.36-3.71,1.21-7.19,3.1-10.44,5.67-3.26,2.58-5.94,5.53-8.06,8.85-2.58,3.79-4.54,7.91-5.9,12.37-1.36,4.46-2.35,9.08-2.95,13.85-.61,4.77-.79,9.53-.57,14.3.23,4.77.79,9.35,1.7,13.73,1.66,7.42,4.23,14.38,7.72,20.88,1.36,2.42,3.21,4.58,5.56,6.47,2.34,1.89,4.96,3.41,7.83,4.54,2.87,1.14,5.9,1.86,9.08,2.16,3.18.3,6.2.08,9.08-.68,4.09-1.06,7.41-2.46,9.99-4.2,2.57-1.74,4.61-3.82,6.13-6.24,1.51-2.42,2.53-5.07,3.06-7.95.53-2.87.79-5.9.79-9.08v-.23c-1.97,0-3.71-.04-5.22-.11-1.51-.07-2.65-.11-3.41-.11-3.33,0-6.58-.6-9.76-1.82-2.72-.91-4.77-2.34-6.13-4.31-1.51-1.66-2.27-3.71-2.27-6.13,0-.91.04-1.78.11-2.61.07-.83.19-1.7.34-2.61.45-1.21,1.44-2.72,2.95-4.54.91-.76,2.34-1.36,4.31-1.82.91-.3,1.82-.57,2.72-.79.91-.23,1.96-.42,3.18-.57.91-.15,1.89-.23,2.95-.23h23.83c1.66-.15,3.59.04,5.79.57,2.19.53,3.89,1.33,5.11,2.38.45.61.91,1.21,1.36,1.82.45.61.83,1.29,1.13,2.04.6,1.67.98,3.33,1.13,4.99.15.91.26,1.86.34,2.84.07.99.11,1.85.11,2.61v9.31Z"/><path class="cls-8" d="M3830.89,1831.66l-.45,35.64h9.08c6.2-.15,11.73-.23,16.57-.23s10.21.08,16.12.23h1.13c1.82,0,3.59.04,5.33.11,1.74.08,3.44.11,5.11.11,1.82.15,3.55.42,5.22.79,1.66.38,3.33.79,4.99,1.25,2.57.91,4.69,2.27,6.36,4.09,1.51,1.97,2.27,4.16,2.27,6.58v2.61c0,.99-.15,1.85-.45,2.61-.3,1.67-1.29,3.18-2.95,4.54-.76,1.06-2.2,1.82-4.31,2.27-1.97.61-3.94.99-5.9,1.13-2.12.45-4.24.68-6.36.68h-10.67l-41.99.23-.45,44.49,45.17.45h14.07c1.06,0,2.04.08,2.95.23,1.21.31,2.31.49,3.29.57.98.08,1.93.27,2.84.57,1.82.61,3.33,1.44,4.54,2.5,1.51,1.51,2.5,3.1,2.95,4.77.15.76.26,1.55.34,2.38.07.83.04,1.7-.11,2.61,0,2.42-.76,4.62-2.27,6.58-1.82,2.12-3.94,3.48-6.36,4.09-3.18,1.36-6.66,2.04-10.44,2.04-1.67.15-3.41.23-5.22.23s-3.56.08-5.22.23h-1.36c-11.8.3-24.06.3-36.77,0-3.03,0-5.45-.04-7.26-.11-1.82-.08-3.44-.11-4.88-.11h-10.33c-3.48.3-6.36-.3-8.63-1.82-1.67-1.06-2.95-2.5-3.86-4.31-.45-.45-.68-.91-.68-1.36-.15-.3-.31-.53-.45-.68-.15-.15-.3-.38-.45-.68-.3-.76-.53-1.55-.68-2.38-.15-.83-.23-1.62-.23-2.38-.15-.75-.27-1.51-.34-2.27-.08-.76-.19-1.51-.34-2.27v-3.63c0-.6.04-1.21.11-1.82.07-.6.11-1.21.11-1.82v-17.71l.45-32.69v-30.19c0-5.45.04-10.29.11-14.53.08-4.23.19-8.85.34-13.85v-1.13c.15-1.66.26-3.21.34-4.65.07-1.44.11-2.91.11-4.43.15-3.03.98-5.98,2.5-8.85.6-1.21,1.25-2.27,1.93-3.18.68-.91,1.62-1.66,2.84-2.27,2.27-1.36,4.62-2.04,7.04-2.04,1.21,0,2.12.08,2.72.23v-.23h11.46c1.59,0,3.29-.04,5.11-.11,1.82-.07,4.31-.11,7.49-.11,6.05-.15,11.8-.23,17.25-.23s11.04.08,16.8.23h.91c1.66.15,3.41.23,5.22.23s3.55.08,5.22.23c1.66,0,3.33.19,4.99.57,1.66.38,3.33.87,4.99,1.48,2.57.76,4.69,2.04,6.36,3.86,1.36,2.12,2.04,4.24,2.04,6.36v2.61c0,.83-.15,1.63-.45,2.38-.15,1.51-1.06,3.1-2.72,4.77-.61.3-1.25.68-1.93,1.13s-1.48.83-2.38,1.13c-.91.3-1.85.49-2.84.57-.99.08-1.93.19-2.84.34-1.21.3-2.31.45-3.29.45h-13.51l-45.4.23v.68Z"/><path class="cls-6" d="M287.71,1678.51l-63.02-191.8h46.03l54.53,169.88h-23.02l56.99-169.88h41.1l54.8,169.88h-22.19l55.9-169.88h42.47l-63.02,191.8h-47.13l-48.77-149.06h12.6l-49.87,149.06h-47.4Z"/><path class="cls-6" d="M555.95,1678.51v-191.8h44.66v191.8h-44.66Z"/><path class="cls-6" d="M645.82,1678.51v-191.8h44.11v191.8h-44.11ZM685.28,1634.67l-2.19-51.24,91.79-96.72h49.32l-82.47,89.05-25.21,26.3-31.24,32.61ZM777.07,1678.51l-68.23-83.3,29.04-31.78,91.24,115.08h-52.06Z"/><path class="cls-6" d="M848.58,1678.51v-191.8h44.66v191.8h-44.66Z"/><path class="cls-6" d="M938.45,1678.51v-191.8h36.72l81.65,135.36h-19.45l80.01-135.36h36.99v191.8h-41.37l-.55-127.96h8.22l-64.66,107.41h-19.73l-65.49-107.41h9.04v127.96h-41.37Z"/><path class="cls-6" d="M1200.12,1678.51v-191.8h144.95v35.62h-100.83v120.56h104.39v35.62h-148.51ZM1240.94,1598.51v-34.8h92.34v34.8h-92.34Z"/><path class="cls-6" d="M1383.97,1678.51v-191.8h87.13c20.82,0,39.18,3.97,55.07,11.92,15.89,7.95,28.31,19.09,37.26,33.43,8.95,14.34,13.43,31.19,13.43,50.55s-4.48,36.22-13.43,50.55c-8.95,14.34-21.37,25.48-37.26,33.43-15.89,7.95-34.25,11.92-55.07,11.92h-87.13ZM1428.63,1642.35h40.28c12.78,0,23.88-2.42,33.29-7.26,9.41-4.84,16.71-11.78,21.92-20.82s7.81-19.59,7.81-31.65-2.6-22.83-7.81-31.78c-5.21-8.95-12.51-15.85-21.92-20.69-9.41-4.84-20.51-7.26-33.29-7.26h-40.28v119.46Z"/><path class="cls-6" d="M1610.29,1678.51v-191.8h44.66v191.8h-44.66Z"/><path class="cls-6" d="M1674.95,1678.51l85.21-191.8h43.84l86.04,191.8h-46.58l-70.42-169.33h17.81l-70.42,169.33h-45.48ZM1717.97,1637.41l11.23-33.7h99.19l11.51,33.7h-121.93Z"/><path class="cls-6" d="M2550.25,1678.51v-191.8h36.72l81.65,135.36h-19.45l80.01-135.36h36.99v191.8h-41.38l-.55-127.96h8.22l-64.66,107.41h-19.73l-65.49-107.41h9.04v127.96h-41.37Z"/><path class="cls-6" d="M2811.91,1678.51v-191.8h144.95v35.62h-100.83v120.56h104.39v35.62h-148.51ZM2852.74,1598.51v-34.8h92.34v34.8h-92.34Z"/><path class="cls-6" d="M2995.76,1678.51v-191.8h144.95v35.62h-100.83v120.56h104.39v35.62h-148.51ZM3036.59,1598.51v-34.8h92.34v34.8h-92.34Z"/><path class="cls-6" d="M3219.34,1678.51v-155.63h-61.38v-36.17h167.14v36.17h-61.38v155.63h-44.39Z"/><path class="cls-6" d="M3348.94,1678.51v-191.8h44.66v191.8h-44.66Z"/><path class="cls-6" d="M3438.81,1678.51v-191.8h36.72l113.16,138.1h-17.81v-138.1h43.84v191.8h-36.72l-113.16-138.1h17.81v138.1h-43.84Z"/><path class="cls-6" d="M3752.82,1681.8c-15.16,0-29.14-2.42-41.92-7.26-12.79-4.84-23.84-11.74-33.15-20.69-9.32-8.95-16.58-19.45-21.78-31.51s-7.81-25.3-7.81-39.73,2.6-27.67,7.81-39.73,12.56-22.56,22.06-31.51c9.5-8.95,20.64-15.85,33.43-20.69,12.78-4.84,26.85-7.26,42.2-7.26,16.99,0,32.29,2.83,45.9,8.49,13.61,5.66,25.07,13.88,34.39,24.66l-28.22,26.3c-7.12-7.49-14.79-13.01-23.02-16.58-8.22-3.56-17.26-5.34-27.13-5.34-9.14,0-17.54,1.51-25.21,4.52-7.67,3.01-14.29,7.26-19.87,12.74-5.57,5.48-9.86,11.97-12.88,19.45-3.01,7.49-4.52,15.8-4.52,24.93s1.51,16.95,4.52,24.52c3.01,7.58,7.3,14.11,12.88,19.59,5.57,5.48,12.15,9.77,19.73,12.88,7.58,3.11,15.93,4.66,25.07,4.66s17.31-1.46,25.62-4.38c8.31-2.92,16.39-7.76,24.25-14.52l25.21,32.06c-10.6,8.04-22.74,14.11-36.44,18.22-13.7,4.11-27.4,6.17-41.1,6.17ZM3830.36,1657.42l-40.55-6.03v-71.79h40.55v77.82Z"/><path class="cls-6" d="M3935.3,1678.51v-28.77l73.98-69.87c5.84-5.3,10.18-10,13.02-14.11,2.83-4.11,4.7-7.95,5.62-11.51.91-3.56,1.37-6.89,1.37-10,0-7.49-2.56-13.33-7.67-17.54-5.12-4.2-12.79-6.3-23.02-6.3-8.22,0-15.71,1.64-22.47,4.93-6.76,3.29-12.51,8.13-17.26,14.52l-32.06-20.82c7.12-10.96,17.26-19.63,30.41-26.03,13.15-6.39,28.31-9.59,45.48-9.59,14.25,0,26.76,2.29,37.54,6.85,10.78,4.57,19.13,11.1,25.07,19.59,5.93,8.49,8.91,18.59,8.91,30.28,0,6.03-.87,12.15-2.6,18.36-1.74,6.21-4.89,12.7-9.45,19.45-4.57,6.76-11.33,14.34-20.28,22.74l-61.38,57.54-8.49-15.89h108.5v36.17h-145.22Z"/><path class="cls-6" d="M4180.8,1681.8c-15.71,0-29.73-3.88-42.06-11.65-12.33-7.76-22.1-19-29.32-33.7-7.22-14.7-10.82-32.65-10.82-53.84s3.6-39.13,10.82-53.84c7.21-14.7,16.99-25.94,29.32-33.7,12.33-7.76,26.35-11.64,42.06-11.64s30,3.88,42.33,11.64c12.33,7.77,22.1,19,29.32,33.7,7.21,14.71,10.82,32.65,10.82,53.84s-3.61,39.14-10.82,53.84c-7.22,14.71-16.99,25.94-29.32,33.7-12.33,7.77-26.44,11.65-42.33,11.65ZM4180.8,1644.54c7.49,0,14.02-2.15,19.59-6.44,5.57-4.29,9.95-11,13.15-20.14,3.19-9.13,4.79-20.91,4.79-35.35s-1.6-26.21-4.79-35.35c-3.2-9.13-7.58-15.84-13.15-20.14-5.57-4.29-12.1-6.44-19.59-6.44s-13.52,2.15-19.18,6.44c-5.66,4.29-10.14,11.01-13.43,20.14-3.29,9.14-4.93,20.92-4.93,35.35s1.64,26.21,4.93,35.35c3.29,9.14,7.76,15.85,13.43,20.14,5.66,4.29,12.06,6.44,19.18,6.44Z"/><path class="cls-6" d="M4281.9,1678.51v-28.77l73.98-69.87c5.84-5.3,10.18-10,13.01-14.11,2.83-4.11,4.7-7.95,5.62-11.51.91-3.56,1.37-6.89,1.37-10,0-7.49-2.56-13.33-7.67-17.54-5.12-4.2-12.79-6.3-23.02-6.3-8.22,0-15.71,1.64-22.47,4.93-6.76,3.29-12.51,8.13-17.26,14.52l-32.06-20.82c7.12-10.96,17.26-19.63,30.41-26.03,13.15-6.39,28.31-9.59,45.48-9.59,14.25,0,26.76,2.29,37.54,6.85,10.78,4.57,19.13,11.1,25.07,19.59,5.93,8.49,8.91,18.59,8.91,30.28,0,6.03-.87,12.15-2.6,18.36-1.74,6.21-4.89,12.7-9.45,19.45-4.57,6.76-11.33,14.34-20.28,22.74l-61.38,57.54-8.49-15.89h108.5v36.17h-145.22Z"/><path class="cls-6" d="M4510.42,1681.8c-13.34,0-26.54-1.78-39.59-5.34-13.06-3.56-24.25-8.72-33.56-15.48l17.54-33.7c7.12,5.3,15.48,9.55,25.07,12.74,9.59,3.2,19.41,4.79,29.45,4.79,11.14,0,19.96-2.23,26.44-6.71,6.48-4.47,9.73-10.64,9.73-18.5,0-5.11-1.33-9.5-3.97-13.15-2.65-3.65-7.22-6.53-13.7-8.63-6.49-2.1-15.58-3.15-27.26-3.15h-48.77l9.59-107.96h117.27v35.62h-101.38l23.02-20.28-7.12,76.99-22.74-20h40.55c19,0,34.25,2.56,45.76,7.67,11.51,5.12,19.96,12.19,25.34,21.24,5.39,9.04,8.08,19.23,8.08,30.55s-2.83,21.56-8.49,31.24c-5.66,9.68-14.39,17.45-26.17,23.29-11.78,5.84-26.81,8.77-45.07,8.77Z"/><path class="cls-1" d="M2064.05,1496.32h-44.5c-37.65,0-69.66,28.48-72.94,65.98-3.75,42.98,30.02,79.02,72.21,79.02h45.22"/><path class="cls-3" d="M2123.05,1496.32h117M2240.05,1568.32h-117M2123.05,1641.32h117"/><path class="cls-4" d="M2300.05,1496.32h117M2417.05,1568.32h-117M2300.05,1641.32h117"/></g><g id="Line"><path class="cls-2" d="M6,1317.93v1.06c0,.07,62.68.12,140.01.12h4496.2c77.32,0,140.01-.06,140.01-.12v-1.06c0-.07-62.68-.12-140.01-.12h-748.03s-3748.16,0-3748.16,0c-77.32,0-140.01.05-140.01.12Z"/></g><g id="Megaro"><path class="cls-2" d="M3186.05,1314.32v-614.98c0-1.67,1.35-3.02,3.02-3.02h292.98v618"/><path class="cls-2" d="M3241.05,1314.32v-416.99c0-1.66,1.35-3.01,3.01-3.01h33.2c1.14,0,2.17-.64,2.69-1.65l2.84-5.63c22.54-44.72,86.18-45.33,109.57-1.05l3.56,6.73c.52.99,1.54,1.6,2.66,1.6h30.47c1.66,0,3.01,1.35,3.01,3.01v416.99"/><polyline class="cls-2" points="3241.05 928.32 3389.83 928.32 3432.05 928.32"/><line class="cls-2" x1="3390.05" y1="1313.32" x2="3390.05" y2="928.32"/><polyline class="cls-2" points="3281.05 928.32 3281.05 1182.57 3281.05 1313.32"/><line class="cls-2" x1="3390.05" y1="1181.32" x2="3281.05" y2="1181.32"/><path class="cls-2" d="M4343.05,1314.32v-615c0-1.66,1.34-3,3-3h290c1.66,0,3,1.34,3,3v615"/><path class="cls-2" d="M4396.05,1314.32v-416.98c0-1.67,1.35-3.02,3.02-3.02h33.19c1.14,0,2.18-.64,2.7-1.66l2.83-5.62c22.54-44.72,86.18-45.33,109.57-1.05l3.55,6.73c.52.99,1.55,1.61,2.67,1.61h30.46c1.67,0,3.02,1.35,3.02,3.02v416.98"/><polyline class="cls-2" points="4396.05 928.32 4544.94 928.32 4587.05 928.32"/><line class="cls-2" x1="4545.05" y1="1313.32" x2="4545.05" y2="928.32"/><polyline class="cls-2" points="4436.05 928.32 4436.05 1182.57 4436.05 1313.32"/><line class="cls-2" x1="4545.05" y1="1181.32" x2="4436.05" y2="1181.32"/><path class="cls-2" d="M4343.37,696.32h0c-267.8-148.58-593.28-148.58-861.08,0h0"/><path class="cls-2" d="M4343.37,826.74c-124.59-127.5-682.98-155.12-861.08,1.65"/><path class="cls-2" d="M3648.05,849.47c-46.27,11.78-87.1,27.27-119,46.82"/><path class="cls-2" d="M4132.33,837.56c-129.29-22.78-301.05-24.58-438.97,1.87"/><path class="cls-2" d="M4298.05,895.74c-25.13-19.93-67.6-36.46-120.5-48.94"/><line class="cls-2" x1="4298.05" y1="1313.32" x2="4298.05" y2="1121.32"/><line class="cls-2" x1="4256.05" y1="1313.32" x2="4256.05" y2="1112.32"/><line class="cls-2" x1="4177.05" y1="1313.32" x2="4177.05" y2="751.32"/><line class="cls-2" x1="4132.05" y1="1313.32" x2="4132.05" y2="743.32"/><line class="cls-2" x1="4048.05" y1="1313.32" x2="4048.05" y2="1095.32"/><line class="cls-2" x1="4091.05" y1="733.32" x2="4091.05" y2="1032.32"/><path class="cls-2" d="M4009.05,1313.32v-153.97c0-1.67-1.36-3.03-3.03-3.03h-183.94c-1.67,0-3.03,1.36-3.03,3.03v153.97"/><polyline class="cls-2" points="4009.05 1193.32 3914.03 1193.32 3819.05 1193.32"/><line class="cls-2" x1="3914.05" y1="1313.32" x2="3914.05" y2="1193.32"/><line class="cls-2" x1="3958.05" y1="721.32" x2="3958.05" y2="1024.32"/><polyline class="cls-2" points="3870.05 721.32 3870.05 1024.19 3870.05 721.32"/><path class="cls-2" d="M3781.05,727.16v301.29-301.29Z"/><line class="cls-2" x1="3739.05" y1="733.32" x2="3739.05" y2="1028.32"/><line class="cls-2" x1="3693.05" y1="740.32" x2="3693.05" y2="1313.32"/><line class="cls-2" x1="3648.05" y1="751.32" x2="3648.05" y2="1313.32"/><line class="cls-2" x1="3570.05" y1="776.32" x2="3570.05" y2="1052.32"/><line class="cls-2" x1="3529.05" y1="797.32" x2="3529.05" y2="1063.32"/><path class="cls-2" d="M3645.62,1040.59c-64.66,7.43-121.41,18.05-163.34,32.24"/><path class="cls-2" d="M4132.05,1035.26c-132.45-10.69-298.39-11.63-438.1.48"/><path class="cls-2" d="M4343.36,1072.14c-32.21-13.81-91.96-24.96-166.32-32.72"/><path class="cls-2" d="M3648.05,1106.67c-65.66,6.12-123.31,14.94-165.76,26.77"/><path class="cls-2" d="M4132.05,1102.52c-132.73-8.82-299.11-9.58-439,.46"/><path class="cls-2" d="M4343.36,1132.87c-32.21-11.37-91.96-20.54-166.32-26.94"/><line class="cls-2" x1="4048.05" y1="1030.32" x2="4048.05" y2="728.32"/><line class="cls-2" x1="3781.05" y1="1317.32" x2="3781.05" y2="1099.32"/><path class="cls-2" d="M4256.42,653.32h0c-64.83-248.84-645.24-230.19-686,0h0"/><line class="cls-2" x1="4298.05" y1="1057.32" x2="4298.05" y2="794.32"/><line class="cls-2" x1="4256.05" y1="1048.32" x2="4256.05" y2="774.32"/><line class="cls-2" x1="3571.05" y1="1114.32" x2="3571.05" y2="1313.32"/><line class="cls-2" x1="3529.05" y1="1121.32" x2="3529.05" y2="1313.32"/></g><g id="Umbrellas"><path class="cls-2" d="M2873.83,908.49h0c-5.65,1.09-10.49,4.71-13.11,9.84l-.96,1.87-2.49-.35c-6.74-.95-13.61-.41-20.12,1.58l-3.35,1.02-6.28-3.44c-4.49-2.46-9.38-4.11-14.44-4.89l-6.21-.96-1.23-2.68c-2.48-5.38-6.26-10.06-11.01-13.61l-1.03-.44,2.42-2.64c28.64-28.64,68.51-8.9,77.81,14.69h0Z"/><path class="cls-2" d="M2863.61,1043.37h0c-7.09,1.36-13.15,5.91-16.45,12.34l-1.2,2.35-3.13-.44c-8.46-1.19-17.07-.51-25.24,1.98l-4.2,1.28-7.88-4.31c-5.64-3.08-11.77-5.16-18.11-6.14l-7.79-1.2-1.55-3.36c-3.11-6.75-7.85-12.62-13.81-17.07l-1.29-.55,3.04-3.32c35.93-35.93,85.95-11.17,97.61,18.43h0Z"/><path class="cls-2" d="M3011.34,998.07h0c-6.1,1.17-11.32,5.09-14.16,10.62l-1.04,2.02-2.69-.38c-7.28-1.02-14.7-.44-21.73,1.71l-3.62,1.11-6.78-3.71c-4.85-2.65-10.13-4.44-15.6-5.29l-6.71-1.03-1.33-2.89c-2.67-5.81-6.76-10.87-11.89-14.7l-1.11-.47,2.62-2.86c30.93-30.93,74-9.62,84.04,15.87h0Z"/><path class="cls-2" d="M3095.88,948.86h0c-6.1,1.17-11.32,5.09-14.16,10.62l-1.04,2.02-2.69-.38c-7.28-1.02-14.7-.44-21.73,1.71l-3.62,1.11-6.78-3.71c-4.85-2.65-10.13-4.44-15.6-5.29l-6.71-1.03-1.33-2.89c-2.67-5.81-6.76-10.87-11.89-14.7l-1.11-.47,2.62-2.86c30.93-30.93,74-9.62,84.04,15.87h0Z"/><path class="cls-2" d="M2919.08,1142.33c-7.98-1.12-16.11-.48-23.81,1.87l-3.97,1.21-7.44-4.07c-5.32-2.91-11.1-4.87-17.09-5.79l-7.35-1.13-1.46-3.17c-2.93-6.37-7.41-11.91-13.03-16.11l-1.22-.52,2.87-3.13c33.9-33.9,81.1-10.54,92.1,17.39h0s0,0,0,0c-6.69,1.29-12.41,5.58-15.52,11.64l-4.08,1.8Z"/><path class="cls-2" d="M3016.97,1172.83l.68.14s.29-1.01.56-2.27l15.54-73.56c.27-1.27.45-2.3.41-2.31l-.68-.14s-.29,1.01-.56,2.27l-2.59,12.24-12.95,61.32c-.27,1.27-.45,2.3-.41,2.31Z"/><path class="cls-2" d="M2796.07,1112.15l.7.15s.3-1.01.56-2.27l15.54-73.56c.27-1.27.45-2.3.41-2.31l-.7-.15s-.3,1.01-.56,2.27l-2.59,12.24-12.95,61.32c-.27,1.27-.45,2.3-.41,2.31Z"/><path class="cls-2" d="M2822.42,955.35l.59.13s.22-.7.4-1.57l10.76-50.95c.19-.88.31-1.59.27-1.6l-.59-.13s-.22.7-.4,1.57l-1.79,8.48-8.97,42.47c-.19.88-.31,1.59-.27,1.6Z"/><path class="cls-2" d="M2958.48,1045.38l.68.14s.22-.65.39-1.48l10.13-47.98c.17-.83.28-1.5.24-1.51l-.68-.14s-.22.65-.39,1.48l-1.69,7.98-8.45,39.99c-.17.83-.28,1.5-.24,1.51Z"/><path class="cls-2" d="M2879.28,1176.89l.55.12s.21-.7.4-1.57l10.76-50.95c.19-.88.31-1.59.27-1.6l-.55-.12s-.21.7-.4,1.57l-1.79,8.48-8.97,42.47c-.19.88-.31,1.59-.27,1.6Z"/><path class="cls-2" d="M3040.65,999.24l.61.13s.22-.7.4-1.57l10.76-50.95c.19-.88.3-1.59.27-1.6l-.61-.13s-.22.7-.4,1.57l-1.79,8.48-8.97,42.47c-.19.88-.3,1.59-.27,1.6Z"/><path class="cls-2" d="M2827.67,1314.17l1.08.11c.07,0,.72-5.82,1.46-13.02l43.09-418.44c.74-7.2,1.29-13.04,1.22-13.04l-1.08-.11c-.07,0-.72,5.82-1.46,13.02l-7.17,69.62-35.92,348.83c-.74,7.2-1.29,13.04-1.22,13.04Z"/><path class="cls-2" d="M2899.86,1314.17l1.08.11c.07,0,.72-5.82,1.46-13.02l43.09-418.44c.74-7.2,1.29-13.04,1.22-13.04l-1.08-.11c-.07,0-.72,5.82-1.46,13.02l-7.17,69.62-35.92,348.83c-.74,7.2-1.29,13.04-1.22,13.04Z"/><path class="cls-2" d="M2973.85,1315.09l1.08.11c.07,0,.72-5.82,1.46-13.02l43.09-418.44c.74-7.2,1.29-13.04,1.22-13.04l-1.08-.11c-.07,0-.72,5.82-1.46,13.02l-7.17,69.62-35.92,348.83c-.74,7.2-1.29,13.04-1.22,13.04Z"/><path class="cls-2" d="M3062.04,1106.12c-7.98-1.12-16.11-.48-23.81,1.87l-3.97,1.21-7.44-4.07c-5.32-2.91-11.1-4.87-17.09-5.79l-7.35-1.13-1.46-3.17c-2.93-6.37-7.41-11.91-13.03-16.11l-1.22-.52,2.87-3.13c33.9-33.9,81.1-10.54,92.1,17.39h0s0,0,0,0c-6.69,1.29-12.41,5.58-15.52,11.64l-4.08,1.8Z"/></g><g id="White_Tower"><path class="cls-2" d="M2305.62,1313.44v-81.14c0-4.78.76-9.54,2.24-14.09h0c10.29-31.52,54.87-31.56,65.2-.05h0c1.56,4.76,2.36,9.74,2.36,14.74v82.22"/><path class="cls-2" d="M2677.24,998.71l-.83-.14c-154.34-25.37-311.78-25.58-466.19-.6l-4.58.74"/><rect class="cls-2" x="2595.49" y="853.41" width="13.38" height="23.09" rx="3.02" ry="3.02"/><rect class="cls-2" x="2541.59" y="935.2" width="13.38" height="23.09" rx="3.02" ry="3.02"/><rect class="cls-2" x="2466.94" y="846.58" width="13.38" height="23.09" rx="3.02" ry="3.02"/><rect class="cls-2" x="2252.8" y="855.56" width="13.38" height="23.09" rx="3.02" ry="3.02"/><rect class="cls-2" x="2398.46" y="1029.33" width="16.17" height="25.58" rx="3.02" ry="3.02"/><rect class="cls-2" x="2356.64" y="846.58" width="13.38" height="23.09" rx="3.02" ry="3.02"/><rect class="cls-2" x="2241.89" y="1050.12" width="10.91" height="21.45" rx="3.02" ry="3.02"/><rect class="cls-2" x="2610.27" y="1050.12" width="12.4" height="21.45" rx="3.02" ry="3.02"/><rect class="cls-2" x="2546.35" y="1184.53" width="12.72" height="28.3" rx="3.02" ry="3.02"/><rect class="cls-2" x="2314.65" y="932.97" width="9.7" height="25.31" rx="3.02" ry="3.02"/><path class="cls-2" d="M2571.02,689.05l-.45-.14c-72.58-22.41-172.11-21.69-253.12-.6l-2.49.74"/><path class="cls-2" d="M2442.16,469.17h43.1c.92,0,1.39,1.12.73,1.77l-13.33,13.33c-.4.4-.4,1.06,0,1.47l12.19,12.19c.65.65.19,1.77-.73,1.77h-40.75"/><path class="cls-2" d="M2571.02,699.67v-73.52c0-.43-.13-.84-.37-1.19l-1.8-2.62c-.31-.46-.79-.77-1.34-.87-6.63-1.24-13.32-2.48-20.09-3.69v.82s0,26.79,0,26.79c0,1.74-1.41,3.14-3.14,3.14l-4.2-.42c-1.74,0-3.14-1.41-3.14-3.14l.42-27.73v-1.2c-7.79-1.32-15.69-2.57-23.71-3.69v1.91s0,26.49,0,26.49c0,1.74-1.41,3.14-3.14,3.14l-9.7-.78c-1.74,0-3.14-1.41-3.14-3.14v-27.94s0-1.69,0-1.69c-8.47-.94-17.09-1.7-25.87-2.21v.33s0,29.12,0,29.12c0,1.74-1.41,3.14-3.14,3.14h-10.42c-1.74,0-3.14-1.41-3.14-3.14v-29.2s0-.88,0-.88c-3.71-.07-7.46-.08-11.23-.05-4.13.04-8.3.12-12.48.24v.46s0,30.69,0,30.69c0,1.74-1.41,3.14-3.14,3.14h-9.61c-1.74,0-3.14-1.41-3.14-3.14v-30.25s0-.26,0-.26c-8.34.43-16.72,1.01-25.06,1.76v.38s0,27.66,0,27.66c0,1.74-1.41,3.14-3.14,3.14l-8.17.72c-1.74,0-3.14-1.41-3.14-3.14v-26.51s0-.8,0-.8c-7.69.86-15.31,1.86-22.82,2.99v1.04s0,28.36,0,28.36c0,1.74-1.41,3.14-3.14,3.14l-4.58.81c-1.74,0-3.14-1.41-3.14-3.14v-27.4s0-1.04,0-1.04c-7.87,1.36-15.57,2.88-23.04,4.56-.54.12-1.01.45-1.31.92l-1.81,2.87c-.21.33-.32.72-.32,1.11v73.57"/><path class="cls-2" d="M2687.65,811.1l-20.32-6.73h0c-.83-.05-1.48-.74-1.48-1.58v-10.56c0-5.04-4.08-9.12-9.12-9.12h0c-5.04,0-9.12,4.08-9.12,9.12v7.65c0,.95-.84,1.69-1.78,1.57l-12.29-1.61c-.79-.1-1.37-.77-1.37-1.57v-14.13c0-5.04-4.08-9.12-9.12-9.12h-1.98c-5.04,0-9.12,4.08-9.12,9.12v11.35c0,.94-.81,1.67-1.75,1.57l-11.66-1.25c-.8-.09-1.41-.76-1.41-1.57v-14.22c0-5.04-4.08-9.12-9.12-9.12h-3.48c-5.04,0-9.12,4.08-9.12,9.12v12.01c0,.93-.8,1.66-1.73,1.57l-12.04-1.14c-.81-.08-1.43-.76-1.43-1.57v-15.78c0-5.04-4.08-9.12-9.12-9.12h-6.99c-5.04,0-9.12,4.08-9.12,9.12v13.79c0,.91-.76,1.63-1.67,1.58l-12.59-.71c-.84-.05-1.49-.74-1.49-1.58v-16.28c0-5.04-4.08-9.12-9.12-9.12h-6.47c-5.04,0-9.12,4.08-9.12,9.12v14.19c0,.87-.71,1.58-1.58,1.58h-13.86c-.87,0-1.58-.71-1.58-1.58v-14.19c0-5.04-4.08-9.12-9.12-9.12h-8.35c-5.04,0-9.12,4.08-9.12,9.12v14.3c0,.88-.71,1.58-1.59,1.58l-15.25-.07c-.87,0-1.57-.71-1.57-1.58v-14.22c0-5.04-4.08-9.12-9.12-9.12h-8.35c-5.04,0-9.12,4.08-9.12,9.12v12.52c0,1.82-1.43,3.32-3.24,3.42l-9.17.48c-1.96.1-3.6-1.46-3.6-3.42v-13.01c0-5.04-4.08-9.12-9.12-9.12h-8.35c-5.04,0-9.12,4.08-9.12,9.12v14.49c0,1.82-1.42,3.32-3.23,3.42l-10.39.58c-1.96.11-3.62-1.45-3.62-3.42v-10.44c0-5.04-4.08-9.12-9.12-9.12h-6.41c-5.04,0-9.12,4.08-9.12,9.12v12.64c0,1.78-1.37,3.27-3.14,3.41l-6.63.55c-2,.16-3.71-1.41-3.71-3.41v-7.53c0-5.04-4.08-9.12-9.12-9.12h-5.21c-5.04,0-9.12,4.08-9.12,9.12v10.39c0,1.75-1.32,3.22-3.06,3.4l-6.42.69c-2.02.22-3.79-1.37-3.79-3.4v-8.11c0-5.04-4.08-9.12-9.12-9.12h-1.84c-5.04,0-9.12,4.08-9.12,9.12v11.28c0,1.72-1.28,3.17-2.98,3.4l-8.22,1.07c-2.05.27-3.86-1.33-3.86-3.4v-4.54c0-5.04-4.08-9.12-9.12-9.12h0c-5.04,0-9.12,4.08-9.12,9.12v8.01c0,1.72-1.27,3.17-2.97,3.39l-18.66,7.14"/><path class="cls-2" d="M2206.24,824.43c.66.7,1.02,1.62,1.02,2.57v482.92c0,1.65,1.23,3.03,2.86,3.24l15.95,1.99c149.35,5.38,292.03,2.14,432.37,0l16.07-2c1.56-.19,2.73-1.52,2.73-3.1v-485.01l13.09-17.53v-70.74c0-.44-.28-.84-.7-.99l-11.69-4.19c-.67-.24-1.38.27-1.38.98v21.57c0,1.74-1.41,3.14-3.14,3.14l-5.21-3.12c-1.74,0-3.14-1.41-3.14-3.14v-23.05c0-.45-.29-.84-.71-.98-7.57-2.49-15.15-4.85-22.73-7.08-.66-.2-1.33.31-1.32,1l.15,21.47c0,1.74-1.41,3.14-3.14,3.14l-12.38-3.12c-1.74,0-3.14-1.41-3.14-3.14l.04-24.09c0-.47-.32-.88-.77-1-9.1-2.4-18.2-4.62-27.31-6.65-.64-.14-1.26.35-1.26,1.01v23.84c0,1.74-1.41,3.14-3.14,3.14l-15.18-2.08c-1.74,0-3.14-1.41-3.14-3.14v-26.6c0-.5-.36-.94-.85-1.03-10.18-1.92-20.37-3.62-30.56-5.08-.63-.09-1.19.4-1.19,1.04v29.4c0,1.98-1.41,3.58-3.14,3.58l-16.87-1.19c-1.74,0-3.14-1.6-3.14-3.58v-31.38c0-.53-.4-.98-.94-1.04-10.28-1.1-20.56-1.97-30.85-2.61-.6-.04-1.11.44-1.11,1.04v32.86c0,1.74-1.41,3.14-3.14,3.14h-17.77c-1.74,0-3.14-1.41-3.14-3.14v-33.98c0-.57-.45-1.04-1.02-1.05-10.58-.25-21.16-.26-31.74-.03-.57.01-1.03.48-1.03,1.05v34.01c0,1.74-1.41,3.14-3.14,3.14h-17.77c-1.74,0-3.14-1.41-3.14-3.14v-32.93c0-.6-.51-1.08-1.11-1.05-9.91.6-19.83,1.41-29.73,2.44-.53.06-.94.51-.94,1.04v31.85c0,1.88-1.41,3.41-3.14,3.41l-17.77,1.13c-1.74,0-3.14-1.53-3.14-3.41v-29.77c0-.64-.56-1.13-1.19-1.04-10.12,1.44-20.23,3.09-30.33,4.98-.5.09-.86.53-.86,1.03v28.97c0,1.74-1.41,3.14-3.14,3.14l-15.99,2.08c-1.74,0-3.14-1.41-3.14-3.14v-26.07c0-.67-.62-1.17-1.28-1.02-8.9,1.98-17.8,4.13-26.69,6.46-.46.12-.78.54-.78,1.02v27.06c0,1.2-1.41,2.61-3.14,2.61l-12.04,2.08c-1.74,0-3.14-1.41-3.14-3.14v-22.94c0-.7-.67-1.2-1.34-1.01-7.28,2.13-14.56,4.37-21.83,6.73-.43.14-.73.54-.73,1v23.47c0,1.74-1.41,3.14-3.14,3.14l-6.83,3.12c-1.74,0-3.14-1.41-3.14-3.14v-21.47c0-.72-.71-1.23-1.4-1-2.8.97-5.59,1.96-8.39,2.97l-4.17,1.5c-.41.15-.69.54-.69.98v71.82s15.01,15.85,15.01,15.85Z"/><path class="cls-2" d="M2442.05,603.98h.22s.02-2.06.02-4.59v-147.53c0-2.54-.01-4.59-.02-4.59h-.22s-.02,2.06-.02,4.59v147.53c0,2.54.01,4.59.02,4.59Z"/></g><g id="_"><path class="cls-2" d="M2053.23,1316.81h-286.79c-1.67,0-3.02-1.35-3.02-3.02v-90.58c0-38.72,31.39-38.11,70.11-38.11h152.62c38.72,0,70.11-.61,70.11,38.11v90.58c0,1.67-1.35,3.02-3.02,3.02Z"/><path class="cls-2" d="M1860.89,465.88l39.41-202.17c.28-1.42,1.52-2.44,2.96-2.44h13.15c1.45,0,2.69,1.03,2.96,2.45l38.38,202.15"/><path class="cls-2" d="M1909.24,256.45h.5s.06-3.29.06-7.34V13.34c0-4.05-.03-7.34-.06-7.34h-.5s-.06,3.29-.06,7.34v235.76c0,4.05.03,7.34.06,7.34Z"/><path class="cls-2" d="M1893.01,117.41v.49s.43.05.96.05h30.96c.53,0,.96-.02.96-.05v-.49s-.43-.05-.96-.05h-30.96c-.53,0-.96.02-.96.05Z"/><path class="cls-2" d="M1894.79,174.24v.4s.38.04.85.04h27.35c.47,0,.85-.02.85-.04v-.4s-.38-.04-.85-.04h-27.35c-.47,0-.85.02-.85.04Z"/><path class="cls-2" d="M1890.08,227.71v.32s.5.04,1.12.04h35.98c.62,0,1.12-.02,1.12-.04v-.32s-.5-.04-1.12-.04h-35.98c-.62,0-1.12.02-1.12.04Z"/><path class="cls-2" d="M1914.9,378.96c-6.52-.93-13.14-1.02-19.66-.13s-11.88,2.3-17.37,3.91l-.82.2c-11.83-3.43-19.41-8.72-19.41-14.64,0-10.35,23.13-18.74,51.67-18.74s51.67,8.39,51.67,18.74c0,4.82-5.02,9.22-13.27,12.54-3.37,1.36-7.06,1.8-10.66,1.28l-22.16-3.16Z"/><path class="cls-2" d="M1865.33,443.1c11.86-1.62,27.16-2.59,43.86-2.59s32.61,1.01,44.56,2.69"/><path class="cls-2" d="M1843.44,619.49l-40.63-4.59c-14.53-1.81-26.14-12.97-28.51-27.43l-13.76-83.81c-.95-5.14,2.1-10.17,7.09-11.71l10.69-4.12c83.68-33.13,177.45-32.57,264.14,1.27l14.69,5.79c1.77,1.05,4.44,6.09,3.3,11.06l-16.97,83.56c-2.91,14.32-14.88,25.03-29.44,26.33l-38.26,3.64"/><path class="cls-2" d="M1843.44,619.49c20.34-11.03,37.85-18.33,66.5-18.33s45.34,6.91,65.85,18.33"/><path class="cls-2" d="M1847.22,814.46l-32.95-7.43c-12.44-1.26-21.37-9.05-23.4-19.13l-8.7-58.46c-.81-3.58,1.8-9.09,6.07-10.17l9.15-3.87c73.9-17.08,154.19-18.77,226.06.88l12.57,5.04c1.52.73,3.8,6.25,2.82,9.71l-11.51,58.29c-2.49,9.99-11.74,17.46-24.2,18.36l-32.62,6.77"/><path class="cls-2" d="M1770.32,563.27h0c90.78-25.87,186.97-25.94,277.78-.2l.71.2"/><path class="cls-2" d="M1763.2,518.67h0c94.45-36.82,197.79-36.82,293.94-.18l.75.18"/><line class="cls-2" x1="1847.75" y1="494.28" x2="1852.43" y2="547.1"/><line class="cls-2" x1="1970.26" y1="495.65" x2="1967.94" y2="548.64"/><line class="cls-2" x1="1843.44" y1="616.27" x2="1843.44" y2="706.14"/><line class="cls-2" x1="1975.79" y1="617.09" x2="1975.79" y2="706.96"/><path class="cls-2" d="M1773.23,591.94h0c88.57-25.87,182.43-25.94,271.04-.2l.69.2"/><path class="cls-2" d="M1843.44,651.67c18.11-7.98,41.47-12.78,66.97-12.78s49.8,5,68.05,13.26"/><path class="cls-2" d="M1889.09,966.17h.22s.02-1.34.02-2.98v-95.83c0-1.65-.01-2.98-.02-2.98h-.22s-.02,1.34-.02,2.98v95.83c0,1.65.01,2.98.02,2.98Z"/><path class="cls-2" d="M1929.27,966.82h.22s.02-1.34.02-2.98v-95.83c0-1.65-.01-2.98-.02-2.98h-.22s-.02,1.34-.02,2.98v95.83c0,1.65.01,2.98.02,2.98Z"/><path class="cls-2" d="M1947,1184.76h.22s-.03-1.42-.09-3.16l-3.79-101.1c-.07-1.74-.13-3.15-.14-3.15h-.22s.03,1.42.09,3.16l.63,16.82,3.16,84.28c.07,1.74.13,3.15.14,3.15Z"/><path class="cls-2" d="M1872.36,1184.76h-.22s.03-1.42.09-3.16l3.79-101.1c.07-1.74.13-3.15.14-3.15h.22s-.03,1.42-.09,3.16l-.63,16.82-3.16,84.28c-.07,1.74-.13,3.15-.14,3.15Z"/><path class="cls-2" d="M1909.1,1056.53l-78.94-1.16c-6.81,0-11.45-3.22-15.33-8.12-2.84-3.58-4.87-7.72-6.2-12.09l-.85-2.79c-5.95-19.52,7.8-39.95,28.18-40.87.49-.02.98-.03,1.48-.03h71.67"/><path class="cls-2" d="M1909.1,1056.53l78.94-1.16c6.81,0,11.45-3.22,15.33-8.12,2.84-3.58,4.87-7.72,6.2-12.09l.85-2.79c5.95-19.52-7.8-39.95-28.18-40.87-.49-.02-.98-.03-1.48-.03h-71.67"/><path class="cls-2" d="M1835.96,991.51l14.17-143.58c.5-5.07.52-10.18.06-15.25l-1.68-18.51"/><path class="cls-2" d="M1983.07,991.51l-14.17-143.58c-.5-5.07-.52-10.18-.06-15.25l1.68-18.51"/><path class="cls-2" d="M1850.52,839.18c16.01-2.79,36.67-4.47,59.23-4.47s44.04,1.75,60.18,4.64"/><line class="cls-2" x1="1833.01" y1="1053.98" x2="1815.05" y2="1183.73"/><line class="cls-2" x1="1986.86" y1="1058.31" x2="2004.82" y2="1188.06"/><path class="cls-2" d="M1809.66,1034.93h0c65.17-4.62,134.22-4.63,199.41-.04l.51.04"/><path class="cls-2" d="M1889.02,1317.53v-48.4c0-2.85.45-5.69,1.34-8.4h0c6.14-18.8,32.73-18.82,38.89-.03h0c.93,2.84,1.41,5.81,1.41,8.8v49.05"/><path class="cls-2" d="M1763.2,1230.94h0c95.53-9.91,196.74-9.93,292.31-.08l.75.08"/><path class="cls-2" d="M1847.38,815.06c20.34-8.75,33.4-13.49,62.04-13.49s45.34,5.48,65.85,14.55"/><path class="cls-2" d="M1791.5,784.29c90.78-17.88,145.73-17.53,236.52,1.52"/><path class="cls-2" d="M1784.4,743.62c94.45-20.89,156.56-20.89,252.71-.1"/><line class="cls-2" x1="1858.55" y1="730.53" x2="1858.55" y2="771.19"/><line class="cls-2" x1="1961.02" y1="732.86" x2="1961.02" y2="773.52"/></g><g id="Kamara"><path class="cls-2" d="M1646.66,1317.32v-172.31c0-.55.15-1.08.42-1.55l5.4-9.17c1.2-2.04-.27-4.62-2.64-4.62h-233.21c-2.32,0-3.8,2.48-2.69,4.52l10.67,19.7"/><path class="cls-2" d="M1452.7,1256.73h-26.94c-1.67,0-3.02-1.35-3.02-3.02v-97.04c0-1.67,1.35-3.02,3.02-3.02h26.94c1.67,0,3.02,1.35,3.02,3.02v97.04c0,1.67-1.35,3.02-3.02,3.02Z"/><rect class="cls-2" x="1531.52" y="1153.65" width="32.98" height="103.08" rx="3.02" ry="3.02"/><line class="cls-2" x1="1533.25" y1="1171.78" x2="1456.59" y2="1171.78"/><path class="cls-2" d="M1458.91,1298.86h-39.35c-2.44,0-4.41-.55-4.41-1.23v-39.66c0-.68,1.98-1.23,4.41-1.23h39.35c2.44,0,4.41.55,4.41,1.23v39.66c0,.68-1.98,1.23-4.41,1.23Z"/><path class="cls-2" d="M1568.72,1298.86h-39.35c-2.44,0-4.41-.55-4.41-1.23v-39.66c0-.68,1.98-1.23,4.41-1.23h39.35c2.44,0,4.41.55,4.41,1.23v39.66c0,.68-1.98,1.23-4.41,1.23Z"/><path class="cls-2" d="M1465.33,1316.81h-51.33c-3.18,0-5.76-.24-5.76-.53v-16.9c0-.29,2.58-.53,5.76-.53h51.33c3.18,0,5.76.24,5.76.53v16.9c0,.29-2.58.53-5.76.53Z"/><path class="cls-2" d="M1573.68,1317.32h-51.33c-3.18,0-5.76-.24-5.76-.53v-16.9c0-.29,2.58-.53,5.76-.53h51.33c3.18,0,5.76.24,5.76.53v16.9c0,.29-2.58.53-5.76.53Z"/><path class="cls-2" d="M1455.72,1237.53c0-21.97,16.98-39.78,37.92-39.78h0c20.94,0,37.92,17.81,37.92,39.78"/><path class="cls-2" d="M1252.41,1256.73h-26.94c-1.67,0-3.02-1.35-3.02-3.02v-97.04c0-1.67,1.35-3.02,3.02-3.02h26.94c1.67,0,3.02,1.35,3.02,3.02v97.04c0,1.67-1.35,3.02-3.02,3.02Z"/><path class="cls-2" d="M1258.62,1298.86h-39.35c-2.44,0-4.41-.55-4.41-1.23v-39.66c0-.68,1.98-1.23,4.41-1.23h39.35c2.44,0,4.41.55,4.41,1.23v39.66c0,.68-1.98,1.23-4.41,1.23Z"/><path class="cls-2" d="M1265.04,1316.81h-51.33c-3.18,0-5.76-.24-5.76-.53v-16.9c0-.29,2.58-.53,5.76-.53h51.33c3.18,0,5.76.24,5.76.53v16.9c0,.29-2.58.53-5.76.53Z"/><path class="cls-2" d="M1251.21,1129.67c6.7-42.72,43.67-75.4,88.27-75.4h0c44.6,0,81.57,32.68,88.27,75.4"/><path class="cls-2" d="M1272.63,1050.48h-86.31c-.98,0-1.78,1.45-1.78,3.24v23.96"/><path class="cls-2" d="M1488.61,1077.68v-23.96c0-1.79-1.45-3.24-3.24-3.24h-78.22"/><path class="cls-2" d="M1425.68,1050.48v-40.27c0-1.79-.67-3.24-1.49-3.24h-170.29c-.82,0-1.49,1.45-1.49,3.24v37.94"/><path class="cls-2" d="M1567.28,1108.11v-23.96c0-1.79-2.34-3.24-5.24-3.24h-127.51c-19.87-31.54-55.02-52.5-95.05-52.5h0c-40.04,0-75.18,20.96-95.05,52.5h-.88s-142.96,0-142.96,0l-9.27-.08c0,13.23,14.04,26.03,27.28,26.03h139.46"/><path class="cls-2" d="M1645.31,1133.06v-23.96c0-1.79-2.34-3.24-5.24-3.24h-219.59"/><path class="cls-2" d="M1253.93,1153.88l10.67-19.7c1.11-2.04-.37-4.52-2.69-4.52h-160.78c-.61,0-1,.65-.7,1.19l22.05,40.16c.54.97,1.56,1.58,2.67,1.58h97.32"/><line class="cls-2" x1="1112.3" y1="1107.27" x2="1112.3" y2="1129.67"/><path class="cls-2" d="M1479.77,1119.22h.22s.02-.17.02-.38v-12.13c0-.21-.01-.38-.02-.38h-.22s-.02.17-.02.38v12.13c0,.21.01.38.02.38Z"/><path class="cls-2" d="M1451.76,1119.22h.22s.02-.17.02-.38v-12.13c0-.21-.01-.38-.02-.38h-.22s-.02.17-.02.38v12.13c0,.21.01.38.02.38Z"/><path class="cls-2" d="M1507.76,1119.18h.22s.02-.17.02-.38v-12.13c0-.21-.01-.38-.02-.38h-.22s-.02.17-.02.38v12.13c0,.21.01.38.02.38Z"/><path class="cls-2" d="M1535.77,1119.22h.22s.02-.17.02-.38v-12.13c0-.21-.01-.38-.02-.38h-.22s-.02.17-.02.38v12.13c0,.21.01.38.02.38Z"/><path class="cls-2" d="M1168.58,1120.02h.22s.02-.17.02-.38v-12.13c0-.21-.01-.38-.02-.38h-.22s-.02.17-.02.38v12.13c0,.21.01.38.02.38Z"/><path class="cls-2" d="M1140.58,1120.02h.22s.02-.17.02-.38v-12.13c0-.21-.01-.38-.02-.38h-.22s-.02.17-.02.38v12.13c0,.21.01.38.02.38Z"/><path class="cls-2" d="M1196.58,1119.99h.22s.02-.17.02-.38v-12.13c0-.21-.01-.38-.02-.38h-.22s-.02.17-.02.38v12.13c0,.21.01.38.02.38Z"/><path class="cls-2" d="M1224.58,1120.02h.22s.02-.17.02-.38v-12.13c0-.21-.01-.38-.02-.38h-.22s-.02.17-.02.38v12.13c0,.21.01.38.02.38Z"/><path class="cls-2" d="M1222.46,1237.53c0-21.97-16.98-39.78-37.92-39.78h0v-25.15"/></g><g id="Ag_Dimitrios"><path class="cls-2" d="M858.81,1317.32v-119.19c0-7.1,1.07-14.15,3.17-20.89h0c14.58-46.75,77.75-46.8,92.4-.07h0c2.21,7.06,3.34,14.44,3.34,21.87v118.28"/><path class="cls-2" d="M486.3,971.53v-89.09c0-19.66,15.94-35.61,35.61-35.61h0c19.66,0,35.61,15.94,35.61,35.61v89.09h-71.21Z"/><path class="cls-2" d="M588.85,971.53v-89.09c0-19.66,15.94-35.61,35.61-35.61h0c19.66,0,35.61,15.94,35.61,35.61v89.09h-71.21Z"/><path class="cls-2" d="M691.32,971.53v-89.09c0-19.66,15.94-35.61,35.61-35.61h0c19.66,0,35.61,15.94,35.61,35.61v89.09h-71.21Z"/><path class="cls-2" d="M597.92,773.51v-53.46c0-11.8,11.88-21.36,26.54-21.36h0c14.66,0,26.54,9.57,26.54,21.36v53.46h-53.08Z"/><path class="cls-2" d="M671.19,773.51v-53.46c0-11.8,11.88-21.36,26.54-21.36h0c14.66,0,26.54,9.57,26.54,21.36v53.46h-53.08Z"/><path class="cls-2" d="M524.64,773.51v-53.46c0-11.8,11.88-21.36,26.54-21.36h0c14.66,0,26.54,9.57,26.54,21.36v53.46h-53.08Z"/><path class="cls-2" d="M451.36,773.51v-53.46c0-11.8,11.88-21.36,26.54-21.36h0c14.66,0,26.54,9.57,26.54,21.36v53.46h-53.08Z"/><path class="cls-2" d="M744.47,773.51v-53.46c0-11.8,11.88-21.36,26.54-21.36h0c14.66,0,26.54,9.57,26.54,21.36v53.46h-53.08Z"/><path class="cls-2" d="M881.72,1075.4v-53.46c0-11.8,11.88-21.36,26.54-21.36h0c14.66,0,26.54,9.57,26.54,21.36v53.46h-53.08Z"/><polyline class="cls-2" points="1001.35 1317.32 1001.35 804.9 850.61 804.9 850.61 681.39 624.41 555.05"/><polyline class="cls-2" points="320.31 804.9 402.36 804.9 402.36 681.39 628.56 555.05"/><path class="cls-2" d="M486.3,1218.15v-89.09c0-19.66,15.94-35.61,35.61-35.61h0c19.66,0,35.61,15.94,35.61,35.61v89.09h-71.21Z"/><path class="cls-2" d="M588.85,1218.15v-89.09c0-19.66,15.94-35.61,35.61-35.61h0c19.66,0,35.61,15.94,35.61,35.61v89.09h-71.21Z"/><path class="cls-2" d="M691.32,1218.15v-89.09c0-19.66,15.94-35.61,35.61-35.61h0c19.66,0,35.61,15.94,35.61,35.61v89.09h-71.21Z"/><path class="cls-2" d="M365.5,1075.4v-53.46c0-11.8,11.88-21.36,26.54-21.36h0c14.66,0,26.54,9.57,26.54,21.36v53.46h-53.08Z"/><polyline class="cls-2" points="100.89 1317.32 100.89 574.8 320.31 574.8 320.31 1316.79"/><path class="cls-2" d="M142.52,701.81v-60.14c0-13.27,11.88-24.04,26.54-24.04h0c14.66,0,26.54,10.76,26.54,24.04v60.14h-53.08Z"/><path class="cls-2" d="M226.02,701.81v-60.14c0-13.27,11.88-24.04,26.54-24.04h0c14.66,0,26.54,10.76,26.54,24.04v60.14h-53.08Z"/><path class="cls-2" d="M164.42,1008.35v-59.16c0-19.66,20.35-35.61,45.46-35.61h0c25.11,0,45.46,15.94,45.46,35.61v59.16h-90.91Z"/><path class="cls-2" d="M184.28,834.21v-53.46c0-11.8,11.88-21.36,26.54-21.36h0c14.66,0,26.54,9.57,26.54,21.36v53.46h-53.08Z"/><path class="cls-2" d="M160.42,1317.32v-119.19c0-7.1,1.07-14.15,3.17-20.89h0c14.58-46.75,77.75-46.8,92.4-.07h0c2.21,7.06,3.34,14.44,3.34,21.87v118.28"/><path class="cls-2" d="M210.89,532.49h.66s.07-.91.07-2.03v-65.08c0-1.12-.03-2.03-.07-2.03h-.66s-.07.91-.07,2.03v65.08c0,1.12.03,2.03.07,2.03Z"/><path class="cls-2" d="M188.4,487.36v.64s.59.07,1.31.07h42.2c.73,0,1.31-.03,1.31-.07v-.64s-.59-.07-1.31-.07h-42.2c-.73,0-1.31.03-1.31.07Z"/><path class="cls-2" d="M102.69,575.62h-19.68c-.08,0-.1-.12-.02-.14l128.06-42.98s.03,0,.05,0l124.11,40.61c.08.03.06.14-.02.14h-14.87"/></g></svg>